<mxfile host="app.diagrams.net" agent="Mozilla/5.0 (Macintosh; Intel Mac OS X 10_15_7) AppleWebKit/537.36 (KHTML, like Gecko) Chrome/131.0.0.0 Safari/537.36" version="25.0.3">
  <diagram name="第 1 页" id="gUWxmARYy21RGmJtrItH">
    <mxGraphModel dx="2261" dy="819" grid="0" gridSize="10" guides="1" tooltips="1" connect="1" arrows="1" fold="1" page="1" pageScale="1" pageWidth="827" pageHeight="1169" math="0" shadow="0">
      <root>
        <mxCell id="0" />
        <mxCell id="1" parent="0" />
        <mxCell id="MzykiI3sRF4YuXdm_mYT-2" value="" style="shape=image;verticalLabelPosition=bottom;labelBackgroundColor=default;verticalAlign=top;aspect=fixed;imageAspect=0;image=data:image/png,iVBORw0KGgoAAAANSUhEUgAAAtQAAAJKCAYAAAAMQdLDAAABXmlDQ1BJQ0MgUHJvZmlsZQAAKJF1kL9Kw1AUxr9qpagRHUREFAK6FKrUmqlbLFKEDiG2+AdR0ySmShsvaUTcfAHBQXwE8QWkgw7OTkFBwcnBwV0sgpbrua3aVvHAud/vfpxzOBygQzIYK4YBlFzf09Oz8tLyihx5hoQx9GEEsmGWmappGSrBt7ZH9Q4hobeTYtbN9lp0/ChwpVJ4tft1Y/pvfVv0WHbZJP2gVEzm+UAoTqzt+UzwAfGgR0sRHwt2GnwmON/gy3pNVk8RB8QDZsGwiB+JY/kW32nhUnHX/NpBbC/Zbm6BdJhyFBmkISNHmoUOlX5z9Or/9Cj1nhR2wLAPD1twUIBPE1RyGIqwiefhwsQUYsQJxCkVcevfN2x63hOQTBIETW/dBs6vgaG3pjdxCPTT/S4sZnjGz2VD1XB5cybR4N4K0HXC+csiEIkCtXvO3yuc106BzgfgqvoJIiBkHjo42WcAAABiZVhJZk1NACoAAAAIAAIBEgADAAAAAQABAACHaQAEAAAAAQAAACYAAAAAAAOShgAHAAAAEgAAAFCgAgAEAAAAAQAAAtSgAwAEAAAAAQAAAkoAAAAAQVNDSUkAAABTY3JlZW5zaG90/sUfSAAAAj1pVFh0WE1MOmNvbS5hZG9iZS54bXAAAAAAADx4OnhtcG1ldGEgeG1sbnM6eD0iYWRvYmU6bnM6bWV0YS8iIHg6eG1wdGs9IlhNUCBDb3JlIDYuMC4wIj4KICAgPHJkZjpSREYgeG1sbnM6cmRmPSJodHRwOi8vd3d3LnczLm9yZy8xOTk5LzAyLzIyLXJkZi1zeW50YXgtbnMjIj4KICAgICAgPHJkZjpEZXNjcmlwdGlvbiByZGY6YWJvdXQ9IiIKICAgICAgICAgICAgeG1sbnM6ZXhpZj0iaHR0cDovL25zLmFkb2JlLmNvbS9leGlmLzEuMC8iCiAgICAgICAgICAgIHhtbG5zOnRpZmY9Imh0dHA6Ly9ucy5hZG9iZS5jb20vdGlmZi8xLjAvIj4KICAgICAgICAgPGV4aWY6UGl4ZWxZRGltZW5zaW9uPjU4NjwvZXhpZjpQaXhlbFlEaW1lbnNpb24+CiAgICAgICAgIDxleGlmOlVzZXJDb21tZW50PlNjcmVlbnNob3Q8L2V4aWY6VXNlckNvbW1lbnQ+CiAgICAgICAgIDxleGlmOlBpeGVsWERpbWVuc2lvbj43MjQ8L2V4aWY6UGl4ZWxYRGltZW5zaW9uPgogICAgICAgICA8dGlmZjpPcmllbnRhdGlvbj4xPC90aWZmOk9yaWVudGF0aW9uPgogICAgICA8L3JkZjpEZXNjcmlwdGlvbj4KICAgPC9yZGY6UkRGPgo8L3g6eG1wbWV0YT4K5u+4XQAAQABJREFUeAHsvQeYHFeVNnw658l5FEY5OluWjY1xAMsGTFpjm13A4LWX8Oz6Mw824AWWDzZ8u9+ywC4L/z5eloUF/JFtMsYJZ8nZsiQrSzOanKdz7v891aqZnpmunpZmNKrbOkdPq3uqqqvuee/tqnPPPec9lhyERAQBQUAQEAQEAUFAEBAEBAFB4KQQsJ7Ut+RLgoAgIAgIAoKAICAICAKCgCCgISAGtQwEQUAQEAQEAUFAEBAEBAFBYB4IiEE9D/Dkq4KAICAICAKCgCAgCAgCgoAY1DIGBAFBQBAQBAQBQUAQEAQEgXkgIAb1PMCTrwoCgoAgIAgIAoKAICAICAJiUMsYEAQEAUFAEBAEBAFBQBAQBOaBgBjU8wBPvioICAKCgCAgCAgCgoAgIAiIQS1jQBAQBAQBQUAQEAQEAUFAEJgHAmJQzwM8+aogIAgIAoKAICAICAKCgCAgBrWMAUFAEBAEBAFBQBAQBAQBQWAeCIhBPQ/w5KuCgCAgCAgCgoAgIAgIAoKAGNQyBgQBQUAQEAQEAUFAEBAEBIF5ICAG9TzAk68KAoKAICAICAKCgCAgCAgCYlDLGBAEBAFBQBAQBAQBQUAQEATmgYAY1PMAT74qCAgCgoAgIAgIAoKAICAIiEEtY0AQEAQEAUFAEBAEBAFBQBCYBwJiUM8DPPmqICAICAKCgCAgCAgCgoAgIAa1jAFBQBAQBAQBQUAQEAQEAUFgHgiIQT0P8OSrgoAgIAgIAoKAICAICAKCgBjUMgYEAUFAEBAEBAFBQBAQBASBeSBgn8d35auCgCAgCJwwAt/85jfp17/+9azv2e128nq9tHHjRnr/+99PK1eunHXMqdjwr//6r/Tggw9qp+Z2Wa3m9DOkUin64Ac/SF1dXfRnf/Zn9PGPf3wWHLzv3nvvpVdeeYUaGxvpyiuvpA984ANksVjmdex9991HjzzyCPX399O5555Lf/7nfz6tf8bHx+lP//RPZ12Dr+t0OqmhoYGuu+46uv7t15PD6Zg8bmhoiG655Rbtb9aJXyynsk8Kr8njrFi7tUbIf4KAICAInAgCORFBQBAQBBYRgTvvvDOHe1TJl8vlyj388MOL0qqPfvSjk21Jp9OLcs2TucinP/3pyXbec889s07xwgsv5JqamiaP0TGGkZrLZrPTjj+RY2+99dZZ56yvr88988wzk+ccHBycdYx+/cL3t73tbblkIjn5PUwAJr/3d3/3d5PbT2WfFF7z7//u7yevKR8EAUFAEJgPAuKhxt1eRBAQBE4PAh/5yEc0TypuYgRjll566SV66KGHKJFIaN7Y7u7uot7VhWwte1xvvPFG7ZTFPLkLea2TOVcqmaKv//vX6Z/+6Z9Kfv1zn/scwbCl2tpa+tSnPkU7duygBx54gH7wgx/Qhz/8Ybr66qsnv1/usc88/Qx9+9vf1r739re/nS677DL68pe/TMPDw/SZz3yGHn/88clz6h82bdpE7373u7U/YcjTxMQE/ehHP9K+85vf/Ia++z/fpdtuu00/vOi72fukaKNloyAgCJzZCMzHGpfvCgKCgCBwoggUeqh37do16+tYhp/0Wu7du3fW/tO1gb287N0s9LCWaks4HM6NjY2VfMHYLHWK3PPPP59DCMwkHnhaaZ9neqh37tw5ecw//uM/aufk6zc3N2vbr7/++snrnMixmGho30fIRk5v67/8y79MXgtGu3beQg/1+973vslr6R+4H/W2IwRF36zhqW8v9FBPHjDHh3L7BBOA3OjoqHY28VDPAarsFgQEgZNCwJzBgmf2HEe0FwTOaARqamo0/T0eDy1dulT7DIOMqqurtdd//Md/TMPnne98p7b9vPPO07bv2bNn8liESUw7NhqNEoxMbb8euwsDf/L4TCajHd/Z2Tm5jeOr/+Ef/oFaW1tp2bJlVFVdRR/72MeIz1VKPvShD2neYvYYG702b95c6hT0xz/+kViftWvX0ne/+13DY9kbrQvHTbP4fD666qqrtM98Hl1O5Ngnn3xS+9oll1xCVVVV2udt27bpp6Lt27dPfi71we/3T8amr1u3rtSh2r6F6pOnnnqK2GPOMdz8uvzyy+nQoUNzXl8OEAQEAUHgRBGQkI8TRUyOFwQEgQVD4LnnnqOBgQGCO4A46e7ZZ5+l//7v/9bOz2EBnKTIwqEDwWBQ+8zHFUo8Htf2RSIRbTMnNa5fv5743BzuwMawzWbT9v3hD3/QwiL4j/e85z3aNg4v0c+tbcB/3B5921133UXwpFNbW5t2Hr4eG/WIV6YvfvGL+ldOyTvrD48zsYEZjRgb8H19fZPX53bqon8OhUKaPmwUl3usx+2ZPHbJkiX6KbWJhf5H4bn0bZy4+Oijj2p/cr9xeAgnovJnxF7TDTfcoB9q+L4QfQLvPl1xxRWkT5J4osYThLe+9a2G15UdgoAgIAicLAJiUJ8scvI9QUAQmDcCSHgreg72HjPTw8kKxwyzQd3T00NPP/205pnkc/385z/XTqmzTpRz/v379xMb4m95y1vo9ddfp4suuogQTkEcD1zKoP7EJz5BN998c8lLuN3ukvsLmTxKGdS9vb2T5yk8J3v5deGJCxvU5R5beB6jz8UM6scee4z4NVP4HLy9HA/1zO/O/LucPvnsZz87aUz/13/9F33g/R+gV159hThu/+WXX555SvlbEBAEBIF5ISAG9bzgky8LAoLAqUCAPcvLly+nv/7rvyYwfpzwJTjJkL267On82c9+phnUsVhMS9LjkzFVGtO5lSN8LBvTLBs2bKCtF22lRx59RPOsl/r+G97whlK7F3RfYfiJ7o3nCxRSALL+LOUey156XZjSUJfCcxaeS99v9M6efZ4oMa3fhRdeaHRYWdvn6hNO5NS95BxWo0/ctmzZQp///OcnVyfKupgcJAgIAoJAGQhIDHUZIMkhgoAgcGoQeO211zQvIjN8cMgGx7cyNzD//aUvfYn+53/+Z9aFCw093smhBDOlrq6O/uRP/kTb/JOf/EQ7H2j4iEMfWE6Ee7ijo0P7jv4fx1CzsIFYSjhkpb29veTrggsuKHWKsvdx+IkuyWRS/zitjfox+jsfVOrYxobGyfPwxESXQr1bWlr0zZPv7JXnMAt+IYGTRkdGtYkM82KzZ/hd73rXpOd48ksn+GGuPjnWfWzyGsx/XSgcDiQiCAgCgsBCIyAG9UIjKucTBASBshFgmjr2eLJXleOFuZjLv/3bv016Vtm7PFPY2C6UQgOvcDsXQWHhsAROTtPDPTQv89athYeW/DzTQ17oAS71RaaL4/CKUi8uMrIQwomWuvB1deGCKyzsYWaDlqXcY2tqayZXB/Tz8Pf12HL+zImaM0XvU+5XLuJSW1dLnDiqe4k5DKfcZMaZ59b/nqtPCukP9Th8/buF+Ojb5F0QEAQEgfkiMLWON98zyfcFAUFAEFgABEZGRia9zrrxVhgLrCcf6pcqjAnWt/E78y4zS8ixY8fo+9//Pt1///3abt3QLjy21OdC46zUcTP3vfe979WqCs7cXvg3s18shHB4jC46Kwj/zcmULKtWrZpMzDyRY/l7fD5Q7Wnn4f84jlyXFStW6B/nfOcYbl30lQL97xN9n6tPuN85pIc98DoG+jW44qOIICAICAILjYAY1AuNqJxPEBAEykbgiSeeoKNHj2rHc4gAM0J87Wtfm/w+szSwsIHESW3sjeZkwM98+jNkd9i1eNzDhw9rx8z8j72yHwJ13d/+7d9qzCF6aMhciYIzz3Oyf+vFYk72+yfyPVQg1GjhGD8uvPKmN72JUMlQe/F5br/99snTncix7FVmlhMuZf7jH/+YmDIPPNTaudjj/Y53vGPyvPoH9kBzH7FweA4btdzPPKlh4X7ZegIrBNqXTvA/vsa1115Lv/zlL+kXv/iFFnLCoSa8UlEsjOgETy+HCwKCgCAwCwExqGdBIhsEAUFgsRAoZLGYeU3mD7777ru1zWwgsZHInNDMo9zW3qaFiHAlRWaN2Ldv38yva39zPDYb1LoxffVVV9PM+NuiX1RsI4c1fOLOT9BnP/dZjdWEWUx0nTmeXA+3YLVO5FhmS+EKjRyactNNN2mhOPp577jjjklaw0K42Hjml5F84xvf0Hi5jfYv1Pa///u/p9///veaQc+VG5myj1c/CidnC3UtOY8gIAgIAhJDLWNAEBAETjsCHG/LcbFM68aG9Be+8AXNeOaCKLow8wcb1Xwse2LZyOa4aI7PNRIuiMLFPHT5wAc/oH+suPe//uxfa95pLoCjG73nn3++5pUtxJEVL/dYNsaZfvDSSy/V8OLzcvgNJ4wyA8tcwn3Ex3MiJCeJctjNX/zFX8z1tQXZz+weXBqdxwALG9OsB3upFyrUZkEaKicRBASBikDAgiW5KW6kilBJlBAEBIFKRmBsdIxC4ZBWtbAcPS+++GLNq82GHScossFZycKhMwcPHiQ2hvVERCN9T+RYlFEnLtqyevVqcjgcRqc05XaUG9cM+7nwMGXjpVGCgCCgBAJiUCvRTdJIQUAQOBEEOAGOOZK/9a1vaZUS+bsc9sAFPkQEAUFAEBAEBIGFRkAM6oVGVM4nCAgCpx0Bjv39zne+M9kO9k4zB/JCVOmbPKl8EAQEAUFAEBAEjiMgMdQyFAQBQaDiEODiHRyTzcwgl112Gf3ud78TY7rielkUEgQEAUHAPAiIh9o8fSEtEQQEgQVEQE8PmYuzeAEvKacSBAQBQUAQOEMRENq8M7TjRW1BoNIREEO60ntY9BMEBAFBwDwISMiHefpCWiIICAKCgCAgCAgCgoAgoCACYlAr2GnSZEFAEBAEBAFBQBAQBAQB8yAgBrV5+kJaIggIAoKAICAICAKCgCCgIAJiUCvYadJkQUAQEAQEAUFAEBAEBAHzICAGtXn6QloiCAgCgoAgIAgIAoKAIKAgAmJQK9hp0mRBQBAQBAQBQUAQEAQEAfMgIAa1efpCWiIICAKCgCAgCAgCgoAgoCACYlAr2GnSZEFAEBAEBAFBQBAQBAQB8yAgBrV5+kJaIggIAoKAICAICAKCgCCgIAJiUCvYadJkQUAQEAQEAUFAEBAEBAHzICAGtXn6QloiCAgCgoAgIAgIAoKAIKAgAmJQK9hp0mRBQBAQBAQBQUAQEAQEAfMgIAa1efpCWiIICAKCgCAgCAgCgoAgoCACYlAr2GnSZEFAEBAEBAFBQBAQBAQB8yAgBrV5+kJaIggIAoKAICAICAKCgCCgIAJiUCvYadJkQUAQEAQEAUFAEBAEBAHzICAGtXn6QloiCAgCgoAgIAgIAoKAIKAgAmJQK9hp0mRBQBAQBAQBQUAQEAQEAfMgIAa1efpCWiIICAKCgCAgCAgCgoAgoCACYlAr2GnSZEFAEBAEBAFBQBAQBAQB8yAgBrV5+kJaIggIAoKAICAICAKCgCCgIAJiUCvYadJkQUAQEAQEAUFAEBAEBAHzICAGtXn6QloiCAgCgoAgIAgIAoKAIKAgAmJQK9hp0mRBQBAQBAQBQUAQEAQEAfMgIAa1efpCWiIICAKCgCAgCAgCgoAgoCACdtXafNttt9H+/fvJYrGo1nRpryAgCAgCgoAgIAgIAoLAAiGwZs0a+ta3vrVAZ5vfaSw5yPxOsbjfZkN6x44dZLWKc31xkZerCQKCgCAgCAgCgoAgYA4E2Hy96KKLyCxmrHIGtdvtplAwRA6nwxw9Kq0QBAQBQUAQEAQEAUFAEFhUBFKpFPn9fkokEot6XaOLiZvXCBnZLggIAoKAICAICAKCgCAgCJSBgBjUZYAkhwgCgoAgIAgIAoKAICAICAJGCIhBbYSMbBcEBAFBQBAQBAQBQUAQEATKQEAM6jJAkkMEAUFAEBAEBAFBQBAQBAQBIwTEoDZCRrYLAoKAICAICAKCgCAgCAgCZSAgBnUZIMkhgoAgIAgIAoKAICAICAKCgBECYlAbISPbBQFBQBAQBAQBQUAQEAQEgTIQEIO6DJDkEEFAEBAEBAFBQBAQBAQBQcAIATGojZCR7YKAICAICAKCgCAgCAgCgkAZCIhBXQZIcoggIAgIAoKAICAICAKCgCBghIDdaIdsFwQEAUFAEBAEBAFBQBA4NQjkcjl66MkEPfJUnIKhLK1YZqcbr/dSxxIxzU4N4qf2rBZ0aO7UXmJhz+52uykUDJHD6VjYE8vZBAFBQBAQBAQBQUAQWCQEfvhAhH71SHza1Rywpb90VzUtaxejehowRf5IpVLk9/spkUgU2bv4myTkY/ExlysKAoKAICAICAKCwBmMwEQwS795dLoxzXCk0kQ/+230DEZGXdXFoFa376TlgoAgIAgIAoKAIKAgAsf6MpQ1iA84eiyjoEbSZDGoZQwIAoKAICAICAKCgCCwiAjUVFkMr1ZTbbzP8Euy47QjIAb1ae8CaYAgIAgIAoKAICAInEkILGm1U0u9rajKb9ziLrpdNpobATGozd0/0jpBQBAQBAQBQUAQqDAEEokcPforN40PThnVGUR6HNnlpGcfmdpWYWpXtDrC8lHR3SvKCQKCgCAgCAgCgoDZEHhue5ZuvhUZiBCnLUt2e5biCRtlyUIeEHzs3uk0W5NN1x6zsXwIL4vphog0SBAQBAQBQUAQEAQqGYHHn8wb06xjMmPVXrq+0ald+iZ5VwABMagV6CRpoiAgCAgCgoAgIAhUDgJ7D2QpR1b4o2eLAfnH7ANNvGU8nqTdg0EaT6TIZ7fRuoYqag1Udmy4GNQmHpDSNEFAEBAEBAFBQBCoPARa6okyMKjzQR5T+mXx0WZX26QeiSbo4cNDlDleN3CC0tQbHqJLltTRilrflLIV9kmSEiusQ0UdQUAQEAQEAUFAEDA3AhdfQuRxpzWjmg3rDHzVabxzDLXLqjYP9ct945PGdGEvvNQ3Bu5ttScLhfrM/Cwe6pmIyN+CgCAgCAgCgoAgIAicQgR6h7PkBK2HxZ2jFGKos1kLORz4O40ERSv7qdWV4ViyaOMTmRyFkmmqdjmK7ld9o3ioVe9Bab8gIAgIAoKAICAIKIVAVW2OEmkH+W0pcsGwdmXT5M6kyevMkk1x1jyXzdi0dFmN9ynVgUUaW7maFVFWNgkCgoAgIAgIAoKAIHC6ETj3fAtVVaVpLOIiRHqQ3QEDO2OjiaiD1pyXON3Nm9f1VxrESbf5XeR2KD5bKIGMGNQlwJFdgoAgIAgIAoKAICAILDQC3Z1ZuurPQlRfl6J42kbRpANxxxbacFaUtmyLL/TlFvV8ZzVXU0eNd9o1G71OumQpMjErWCSGuoI7V1QTBAQBQUAQEAQEAfMhsPc1C226JEVV9UHqet1O8bCV6lrTtOb8NPXvU9s0s1os9AYYz5uaqigY5zAWK9V74ImvcFG71yq8c0Q9QUAQEAQEAUFAEKg8BBzeLD3zQy+96YMxWrEpQznkIVoRDZEIE23/BfiaP66+zpx8WKkJiMV6RwzqAlTSWZT+RIatFzE+PMMSEQQEAUFAEBAEBAFBYKERaGm30Kv/6aTxPiud99YE+Wqy1LffTk//zEPVSyujVGImm6NIIkMeh5Uc9sqPMBaDGr8S7vRX+sfpwGgYHIlETpuFNjdW0/rGwEL/huR8goAgIAgIAoKAIHCGI5BO52jTm+K092k3HfxnBzzUFrIiMbG2PUNt69Q3qF86GqLnDgUpCT2Z2OOsJX66bF012ayV66wUgxo/aiYbPzAamfx5J8GV+BIMbDs6fnW9f3K7fBAEBAFBQBAQBAQBQWC+CMRT8N4hCfGid0Sp76CdknErVTVmqK4lQ6Fxtb25u7rD9NS+iUmIsPhPr3aFKYeiLldsrJ3cXmkf1O61BeiNVCZLBwuM6cJT7hkOFv4pnwUBQUAQEAQEAUFAEJg3AsFxCwXqMjTab6dAfY5aVrJX2kJRJCdmkmp7cV88jEDwIrKzO0LJlNpFa4qoNbnpjDeoo+k0GRXCDCP2R0QQEAQEAUFAEBAEBIGFRCAKqum+w3ZqQrx0I14cQ710XYrScQv1dqldSXACzB5FBcZWJdtVZ3zIh5NsBJua7EWQCA2f8fONor8J2SgICAKCgCAgCAgCJ4/A+WfZ6Dvf8SIMIqp5pHUehEjCTja17Wmq8zloNJyaBQ7HUgfcUthlFjCVsqG/l+iVPxTnR3zqgeLbK0V30UMQEAQEAUFAEBAEFh+BplobvfG6CD2/vZp2veang4e89MLz1TQ6bKfW9uTiN2gBr3je8uK5ZxtafBXN9lHEL1seqqlkikZGR6i2tpZcLnUNz4lImp79tYuSCQude3WcvFVE44MW2v5LNx3e6SwPDAWO4lhxTrK06NNgBdo8VxODiRT1heKIOiNqC7jJD85LEUFAEBAEBAFBwOwIvLo7RZ2v2eiG24epv9NJkZCVWpeFKB0l/H3Sppkp1N55IE7BMSv5/FnN255F9GwMseG7wkm6+ixTNPGUNOKEeu3ZZ5+lb3zjG/Twww/TwMCA1iArfPhLliyhlStX0sc//nF673vfe0oaeqpOanFnyOGy0IsPubWX1ZajbCafEOCtUT+GuicYA2PJGIUQD84G9apaH53bUqM8dc2+4RDYWcYn498tfUQXtNbQ2gahOjxVvxU5ryAgCAgCgsDCIJBBqGkOLB87H/Ug5DQHOyRLB55zkNVuoSokK6osB44lKQM7ajzG4R2cpZa3qeKUpbFQmmoDJ2R6KgNF2Vr99Kc/pZtvvpkuv/xyuuuuu6ixsYlqaqopFovR2NgYvfjii3TbbbfR/fffT/fdd58yACxttFPb2ij17ndSCl7qvDGdI6cnhxKgs2OAlFEMDR0Ix+nxzuHJJqdBsr1vJEyJdIbesKxhcrtqH0ZjCXoRxnSh8E/2BWxr8ruoxl05KwuFOspnQUAQEAQEgcpAYCSVoOraHE2M2VH/wkKJuE3z5losMK4nXUVq6prlgh7Hjeip97wuwYQY1HTnnXfSV77yFbrjjjsMe/iee+6hrVu30t69e2n9+vWGxxXb8dhjj9HLL79cbNe0bakUsmAxtXPg30JIAryIGy9Owpi2UmjUCoOayIZpBmfdLt2odhzTKzOMTh2voxMxOjuZJr+z7PmU/lVTvHei/UbShX1iUBuhI9sFAUFAEBAEzIDA4FCWqhFimoPREYMzjx16vmpUax6x0PpL1XbmVdVYMFGYjbId0cFNVWraHbO1mb2lLM04vKOnp4duueWW2Wco2LJq1Sq66qqr6KGHHjphgzqRSFA4XJy7sOASlAVDeCazcMshaRRx8ddm6dyr4hQLYZYYtZI3kCWnL0deP8+y1JXRGNaUDOgshxHL5K8rq/tNB0B+9lu8WVz1UkQQEAQEAUFAEDAzAll4pDdeFaOeXXZ6+fduFHYh8qLBb7k1Sj2H1WbCOHuDnZ55Pk2ZgnkBe95XriLyKOrIK2cslWVRNTc309q1a2nHjh10zTXXGJ43GAxqoR833XST4TFGO6699lri11zyhS98AWUsF47OLhlGuU+gEIBR7XRzyEcOyy45ciHkgwe4ysKlTY3od5JcpUlRafa7tdCVYs3nfSKCgCAgCAgCgoCZEWhflaaXnnDSWZck6ZZrgmSFDZ1AQuKBl+10dG9Zpplp1euPxmnFJhA8DFsoGbOQAwEF1agCSU6LVi2xksgRCjuh7F7j+Ogbb7yRbr31VrruuuuoqalJY/jQY6g5XOPee++lQCBA27ZtK7yGqT+/uCdBB15w0LqLUuTRPNJ5QxORILTzj1ifeJepm1+ycVE4/P01cFLP8FInYjmqcqk7A3bZZihUgIIbCR0igoAgIAgIAoKAmRGorbGSHY/hHQ+6qBbGJtfCSCDsYwSVE9eep3a4qQV6gQOB6lvYntKdd/ln877+CK1vLU6rZ+b+KqdtZRvUd999N23YsEGLpf7qV78669xsSN9+++30yU9+kvx+dcAaGE5T5x4nhYNWWnNBktzwTEfxeffTTsqk1TbOrNYchcYQl4U4LY4L50lCIpqjOGbBe/oi1FKjpje3G1R5RtIdjFOdBxMhRSWLTtozFKRDo2GKY4WhwevQWFnqverqpGhXSLMFAUFAEDhlCGzscNKh3jCN9topGLRRJGghjy9L57wxAa/uKbvsaT/x/q6EGNTcC29/+9u1VygUoq7OLuru6daM55aWFmpvbye3Wz0DzY4BvGxjlo7sdNDg0alERy3e5xzUBlVYnOiOVDJHY4NQgqeLWVSExJJLVR2WYqIFwU2K6RiKGsfQh2LG+1RQ84XeMTo4Gpls6kAkSQ8dHqRtq5qp1iPsJZPAyAdBQBAQBBRGIIF8H3Zu+WsztPKcFEJOcxQcscJDbaW6FoPS3Yrom0ZIqQO2xkxBChxV2afsrJn7Vf+7bA91oaLsjd60eZP2Ktyu4ueN6+z06G9TtOHiBPUedFAC8T7eqiw1L0/RoOLk6lyshr3Tbh/B254jC4xqXlZi/ksbaHpUldA42m7wm2SPPHWoqVkYhWoKjWldC86zfLV/nK5Y0aRvUvY9Bw880zdWWpEhZTtEGi4ICAKnBYGhsTS1rMjQwFEbde23gj/AAsKFHDUuyZLLq4dJnJamzfuiR/fYaPXZWdgcU6fiFfLewxZqVJQMYUoT408nZVAbn069PV2v2Gndlijt2e4EfQ3HHGdpArQ1mbSDNl6itoeaf5wpREc4kGxpPT5bZB0jQWxzqGtQU8JGExMWqm6YftMZH7JQvb/gF6zYcByOGsfNDZXYp4qaB8GB/trgBMXSSABGHPx6FOHZ1FhVUdU7VekLaacgIAicXgRSYfBPI6y0dWVGq3/B5GUOJz/TLJROKfx8hgYv/wHL45YYNbbmyI3cNKYEHOyx0OtPuei8D6m7Oj7XiDnjDWo3wr1bW9Pw4uZodNAGA9RKLSuzVNuWJnXT9vLd7kIFyHAYSy8wqjmDmGeIadhs3moiX1pdwzPjSFH/XiuFUdvFD95OvgVFJvhvC604V92lsiTKwxtJhjtPYTmEMJbnEM6iSxKTvZ0DQWK9zmlG5qyIICAICAJnEALd++zk3pRDSW6wYCCaL/+MZmOaKDiktvXRujpNj3zHR+dfk6BAXVbTcedjbmpYkiZvkVCQSul2da2qBeoBK4zO5x7wUv3SDK29MEnrL4pryYnV9Vl64ZfqxYQXwjIyYKGaeiQ6oBo3h1A7XTl4dYli8FCzp1pVidjiMKRJM6D7O200gBcb0wFUnQpa1c3mKGU0q06vvWsQs58i8vpQCCEgCg/GIjrJJkFAEBAE5kLgQG+CHrvPT3VNWc2YZs+QG6EebpBR/+pePLQVlvY1GdrwhhTtetJNj/3ATy8+6NXCW85+U5L27qvc+/0Z76HevMZJj7cG6cnve2njFUltNjXUaaVXsWSx7HzjJXgVxjoze/QfsVBtM7zUmBuw3TLazyVOMQPGEoyqkoInt201SrYixCMMzzRr4kOoDoeAJBTusuQCFiwyU98yc0kkVfwmyhOFWCpDAdcZP7c3U5dJWwQBQeCUI5Clndv91H3ATpe+M6oVmDu2z0FP/tJPG843ZrI65c1agAuMI7Fy1blJ6tic1sJX7KjtYbPnNOeXDzU/KlXOeIM6UJehQztdtPW6OO3f7qCxfhu1YLni7GsTtPsZtVkVIiFk1GI1fWyQydTZ7OTMWzB9IKFvRYu63nc9+qGmKUc1TVOsHtp2faeCv9iAyyDTErqoO/3h1ZHSrc+Ih9q0o3XfcAiJsmFKY0mr1eem81pryWGTyY9pO0wapgwCrQEnveXGEP3u/1XRz/9ziha1viZF7WsU9gyhBxJwdPUdtoNVLIeVYzjwkJcWHrWRC4b1qg7j55wynWfQ0DPeoGZT5Y03ROnB/6qCJzdNjYif7gN9XvdBJ227de5S6Aa4mmJzfMxG/kCGHNpvdSoGt++IlZZtUTdGi9lK4hEsjfmQF33cVuMQljg4tl1IwFRVLFl1214K8+wcBnMomaEaT6kzqLEvkc5ok4dKMTj/eGSQesNTidkHk1E6FozRO9a1iVGtxpCUVpoYgfd9wEmf/WKCbvqrMep6HbUwxq3UuiJNvuoU7eGicgqLxZ2m5JiDlmxJYmXcghBNrB7DHgmHclSHiUSlyhlvUFe77SBTR0HEO4I0PmiFN9dKq7HcwhUGc1POTyX7v2FpFhMDG6jzUBkRiQGJOKow9cADvzJNwTCUq1dSLcqAW5uNaa74qMeCMz0Pb0tF1DVKJ0pwaKfVzbWck8XDa1fb49k9EaPtPSPEiZYsXIX0qo4mJN+oe3vtD8enGdP6nSIBHZ/rGaVLlyEZQ0QQEAROGgEOg/Di2fzqH5xUvyxL9W0ZrJCj6NrjHnrzrermAjEgTEG88vw0qk2jQB7sDgt0bYbdEUYVyKOHM3TxBScNm6m/qPaTbAGgDceziMPNG2G1zVlaeVY6b0zj2TgxqjY8MdQHWbYuQ7VIeoiDX5uTEpdvTJMVarHeqkpkwg62Ek7eQMKlP//iz1zEhqtcqipcUZ0zvItJSu37azGVJre5HOoansPROD3RNTxpTLNSwUSGfnugnzh2XFU5XFBcaKYOA5Epr/XMffK3ICAIlIfAkZ40bb4ySZuvTlBwwErHXrVrIZlv/kiUXAF1n8+sfQYsYq8jZNYVgCG9Pk1VsEEOvuIAZa+NGhvUdXrN1bPqPsnm0qzM/bFElpJRKwVR+MSLQczGZgrewHjIphVAKfM0pjyMB3UkmNcrUJN/uKcQmhVCNSaHunYnpTHjjYRQgEcjzMvHF7PtEgX9UFrhZMv6gIPC+3OY0OUL8PCgYr1ioD50OxQO0UFcjhte6Dj4p2cKD0Ofwrq90FucvSSJbMv9iD9eD55tFQVrP4bNVnmiYKiU7BAEFhmBRMiusXu0rc5Q49KYRhpgR+KeHRERI70KP6CBY3TMSlVwUPYdcVDPfjyj8fhye7MUQSx1deMiA72IlzvjDepwJP+QTyctCJyfbrQo7GDShhBn1SbgpU5ErGRDHkAuw5WYSKvCZEC6sIhDbx6XyljhiYbxjMkB68WSgWc3CUPbhX2qChudvmoLCgshIxpx4nwTYo+1E9SOVtyMVBaujlhMWCtmbXHap//2ih1rxm2RpHEszlA0QevN2Ogy2uSq8MTDYfQNJ1xy/1W5HbQBE5/qEknBZUAmhwgCJ4RAS72dHnzRTh2b0lrZcf3L/Fw78qraMdTVLRkaPWajABjGbJ6cVrhmYsBGnqoMjWtUXBWQNKN3WMH7GW9Q1/ntmhdQT24rwEabMRb+rdpnLjHOVYq46lIGP1I20DwwzJII/6jxq2nAcB80wZPbE0shxMMCIzrfK9x/zGTSXKVuwsPu3ggqWBJ4SRG+ksBNCNamr2qqXLxq409vr15uXP975jsXtFHVoHZiEpQwoDssxdoyEwOz/R1HnxiJ6gu2HPP+JMJ09CneMO4lneMxevPKRqr3qm3IGPWZbDcfAomYjXY97cbzOEnNSEbkKolRhJ8e3umkY/vUHoerzkthxdhKqShW+xNWVGqGY8iHkFpsj42ryzA21yg64w1qt9NGoVELVdXrt9c8ZOyd7jukNjycqBdDaIQNZcYd2iwxX5XJicnh2Cj0bJ9reJhz/7lrPbTztwl4c3N45R/8zEfNN6N3Xq/uj1VfEeHJgXMGW4mBg9ecHTSjVRYo1OBxEBsuM8XDXnmFk/fOaqqmZ47xj2m6sNG5CaXVVZW8t7Z44L5L0dUE7gue3L3QNzppTOv9w0WVXuobp7esatY3ybsgcEoRGBjM0eFDeBhj7HXucZDFCicKnF8T43bq71fboOYk+vOujkMvJ8JnsXIM+6NtTYrsyOPyWtR1es01INRdH59LszL3P/1Ejp79lY+CeCayR5e9ghxnPIYqg88/CPoPhSWKiohMom6x5BAnDt3wY/XAY51F2Mfuw+omFvFSeqCOw1ks1H8UNx+8klFUSsSkaDg622hTpQvPaQ+QEZuHI6PuigLj3+wvPtFpgEeQDW5VpaPGRxsbpxvOdoTrXLmikRwKG55r6vyGXbJB4YkCh3hEDeLdhqJJzeA2VFx2CAILiEBdQ4aSKRvt2x+go4dcdOyoiw4c8FBnl4d8PrUpxp54wE8xPJ+5+vT5b4nT+jfA3oC1ueMhH9XNcF4uIKSn/VRqu2AXAD6eOQ0OueiPP7IilimhJSYGQUB+6DU3KripbcTEETttR86UC6VMXShpmoObM4EETA6TcB9PUlwACBf9FK93Mq0hwgTgxeW4aa56wgwm3Je7j8boDevUTASr9sJLgWXAjCeDqlJTsMbAuX3lSvA4KixHJzCjKyK9oThKjyMRB0aoqnJuSw3VuZ10aDRETsQeb2quphr8rbLweh33yPR1u7xGds7cVlRKcYQ7OG9B4cmdol1yxjZ75XIbNTXGaHDQTRPBKY80e6q3XGCcm6ECYFVVaXrg27V0yVvCFMAqcjxmpece8VB9LSh7sZpcqVLw2K5UFUvr1dqez2efCDvo1R3TK/igvmDpL5t8Lz8bOF6a1Ugcr7XHYQVME3jxW2FlKypjwSxKjWOSAAOaX4UyPK7uzD4UT9NYCEskqHDJxXg0xhk43LNga9ndHaWVTWr2mVZ6HMVbigkvtcdAq6NqvDGHEDyKAigDESxrHZfOYJzOa6nWEt30baq992GiM/2XNaVBFyZHy2vUHIscrtLmdxXl2F5Zq/aKJPcQ/5ZeBPPMSCxBrOuGhipl+2pqxFXmJ6/HStWBNHncMRoedlAapAEeOFOaGlNYcVXbmcfUths2RmnXU3BMwknkdGRpyfIk7BHU+Viltm6lRuMZb1Dv3QfKGlRIHBpwHjc583Dxw2TFas54m5o5lgLSjPvGkVVb05JGVUEkBdg4yS1vXPOT0pJSt+vD8Lp7sMpunfG75FAW3qeq9I7qYTiclDhdi+6xGRum7zb1X1x63IKE0RxCj2YKT/A8CtPm7R4KTjOmdf1e7p+gpVUe8ivKHMETHSNJz1H50uh7Ztl+8ZJ6erxzCEbnVHhYW8BN52ASpLKEEyn6DfjPj9cXoghCW54+NoIwuDhd0FansmoV2fZnnkH4Eby1HtD1Lu+IY3UEzhM8w2JgsDowZvz7UwGM4WEn2SxZWroyhZXkpMZWNT5oo+4eF7W0qKDBybVRXavq5PSd9a1VK+zU1hYFG0aWehDDlMUs0W7P0uoNGODq2jCanv2ddlRHRPzqcoQQoFIRh3xw4ZPDIFh/cnmcVnYYx0nOAspEG+x2VHwET2cNeC4dx1fWtbj3fvBrIwFTVYkmjZkVsgpnJbIXNww+dF8Re4U5tmPQO+BWcxnw0GjYcLjtHQnRhYoaMqVo89T9heW7ijndr+xopF2YDIXiKY3Zg2nzmKpSZXny2PCkMV2ox76RCOL8qzBxPeMf94WwnPbPR46gCXA0sAEdQ0luNqjzlX9RBRj5TioL1/Lo6vPQ6DgoAWFPsfc9HEcEAB5xLzyfpq0XT48GUFnXwraf8b+wzZttNNpjpybQ1iztmPJYhIasNDoxwwVaiJwCn12eLA13g10BLwtmi0wrp0dGhqPGxpvZVVvZ4qQjIwnqBQuLGzqycIxWVX2W1jYXT34zu07cvuZq45uMC2wYKgsv9WGNhLyYw/HKAjs544gNjyIDnD3YqkqxYjW6LhMw1lSVWLp4iA7rwxMklWUCntzHEKajJyf2hBPEMf5vXtGkdAGl8Zhx3O3BsQgxI43qwkmlPPr8CjMD6X2QxQpCHNSvbtDlsWFd+LOKIExCZeE7OmsQidkpjLX/vOWBSQO2/f43GTGoVe7cUm1//uUUuRtz1HvAToiKICtPohAOmYT90rTS+KFS6pxm2ReAgRkLwZDRfqxTBll1I+K06tUNZek94KCYM0lNy9JISrRqM/uqhjSN9tuoFxUu6Rqz9MCJtSObRrEa2GD2InZ1UOFQFk70WtXkof39Uc2IZjrHvCfGikmEk3wudR8e+vJ6sZ5Ol9pZ7Asm2uYuwVDiVtzTuR1hELoxrUMeTCD2uG+MLl3WoG9S7r3UNCdaogCRCoqOgav52e4RGkeeCUuVy06XLK2jeo+6z7GVKyw0HnJQTQA2CBvVEM7oGkc+F5y6SgsbzqxR3uooHJmoi6F4yFipjjnjPdSRWJYaEEPt8tiop8uhPejtSHRbtmIqyagUgGbeFxmzgPsRiW4IhWB2D66cyF5cDv9QeYK/91CahpEZvXRDkqoacefB73ViCGT4rzuopV3dSdBrR2IUBsNMoI5DdPIji70WcdAPJYwjC8w8BCfbtrLJpRnUvEKSN6bzuzoa1F1R0DTgZwU/PYpIPKXuWOSYYmZeKVbhkqkCVRVO2iuMnS7UoxvJpOx9V5XpQzdiCnXSPzcobHgmsFrCib+JggkqT4AeOzJEb1vTqmwOxqVvclDAGkEiupMd1Fip45U71IygDG05R917B485nyNF4dRspiO3PU3brq1cs7NyNdPvJHO819cTjQzaNaO66qzpg7i/p4ircI7zmWk3/zjH+1F5ry0DWrmMtsweHLJoBlr/4HRdzdTuudpiw2w+m7VS5+7Z3gmb03jZc67znu79WYREcNG9cYQb2XEvYk8uV7jkfrQf92Cc7jae7PWf2Q9S9CLy4tEQbVkZAKOJgVVa5Dum2lTCoHZyaVJFhUM+ihnTrE4QIROtMLhVlFKpCMxGo7KwN9Doru5SOPH36Hh0mjGt91ESBvaR8Xx8uL5NpXd21OYQyleLJXGOmeaACBsStzlU0+GcbYyqpFt1DT/IUC0R1MNZ+KlZO48DbE7eNLkDautWqh/yHvlSR1T4vhiKgTm9GRoemJpb8H2155gTJaDVjYHkbmM9rDYkA4zYqP+wnUa6MbhhiHK88UyGDJW6ecPZObJxfM4MYQ/8prMVNcygy9JmJzncrBc8g4itS4FjW2Nmwc3IPYMecIbqpv6TDZVgvPijnsMiJqLqToLqDB58/Ntbj0QwVWUAccVG0h9m9iM1pRSjDCclquqd5t4oNSlVOe69L1y8Yifr3B8y3sf7zSyvvZqlSNJO8ZyNXCBF8AWwMon7/ETMQc+/bOaWz922JRtTVA3O6WqEZgasCaq2J6gWfy/bnARVoLqOhrk0n7Ii5zqyQvd7MXOvYeJxDORjCPngOFY7QiJa2xMaD7DKant8WVSA5MGb1ykNAy09QQgpyFJdnbpzqU2rnfT6ijiNIJmUdYJ6WknThiVp2rxGTc8Zj7OWGqfmnbCiOAhXtuTYdy7w4kZ1y+a6yr0J5UMj1FwNetOqBvr57l6yzLiT+rFhRYOaXM08Fkslipbax981s3BSm5GwR17lkA+eEKQMXPDq3u1By4/wDiMJlehPo++YZfvwQN4plEAV3ERk+v1d5fwLxneg10UbLotT96s2ioTseK5lqH1Thvp6nLRsibpOr7nGzozHwFyHV97+TRvA5jFgpTpQsC1dNuWR5uX24R6Vb0PoK/xea6FXPMzJbmxUIzsaFQa5umAqnf8xq9iju/amqa4lA8YIlFRHUiKLE8tkbkwgdr6epjdfpKJWYDzH8h+vHLAuTn1eAKOaJ3jWTOX+VO2YQKgqHqeN3r2pjZ44OEKjiQSWbK20rNpLF3eg8pDC0hZwQRcLaNhm3ydYP1WlVLIlRx2p7KGuBed5X7r4yoIPSXyqSqkqqqX2mV3fpcvYF8RpiLMNTBeqJaosnQdcCGMh2rQlTk6EYXIo4yGEaB5ABepjnTlavXa2zirrq7dd3V+ZrsE83/fvz1F/p5My6SR5q1ACGYhwae541E7HDqrpNdMhcYGiLHqcHcIHL3wWE/0oqiQ2LsvQQKe6A3p4HJOEuA3GJydZ5mmU2LCOh200rHAG8eBomkIjVvLXIWkUpdRZmDs8AqaWsbi6ad/s0eQQTqMcvRqf2rchL4zqazc26T+7inhnzuKLl9TRM2DEKHy0r0Y1QVWrJHLHpDLGvyOeO6jsoV6HEKO+yNCs8dfqc1GNW9241daAB/c/lI8tIi1+3fNQZKfJN9ndFnLmMpRErsWUUQ0bBH+lCn90JtejWPNqvWBOQ10Pru1hRygm81BzXS8mT21oUtf2KKZr4Ta1n2SFmpzkZ2b5GJtwal7bhra01vlJcOYNgLs5H796kic2wddGu2zUvAZxWTYYoFEYNUhsq25GNcFRK3nb1O16F9y4UaQ6cBGe+IylMrdt+tKZCbqh7Cb4UNyEwzxCI+BmhofCgvj3DK8kYFtzk7peXAagCiw6I+HZcdRcSNChsIe67M5V8MDhMc4twcoJbBbMiSgJ52dvIkOZNuQwKJpEynoYieI2DDEzywWtNfQKqnTqKwv1HofSVIDcV4ESNI0Bp7pOr+3bwcNvcZCPUrjv820e930YnFl4rMNZdfXiPlu2OkWjO/PVpzmMVn96NdSlye9Xd3LHupUSXc9Sx1T0viRYFDjzNJJwUOcRDx064MWShJuSiGuqa5gKAVERhFHMDicGLRRBdUR+jiQTVgoOW6l7t52ue5u6BvXm5U5KFwmrS6G7zlmlrseiCXHSmeN68WQuw8MPxjRLDpMHlaWYMc368LJgLDnb0FZZ10po+0Q0Rc/sn9DGHdM2xhA2lkHYWBcKKu3ujiirot1q/MjjPSqHfIQRT7xrcMqY5k5iisD9o8W9u6p04njS+DnMRXpUleXL2Xy2ovAJHHrwUqfxlI7BPx0FcV4JGngl1PU1J6gZLw5p0aWmKkUdm+M0OGK8SqQfq+q7ulbVAiHOD4klaxLUuRfhEIkpOGrR+X4k76ksNneW9j7tpiWr0+QBt3EaoSwjR1E5cdxOsfjUQFdOx7SdjrxqpxYU3vEE8npwSfX+w1bKnmv8wDS7nq/uS1IQIR+B2qxGm8ftZc8FGzMHJtQ1OrMIw2E9jLyD/eNJWoHCLyLmQYANZ6M7xOHBGJ29DPFkCkq8RAVIvturHPLBxnQhV7PePa8NBGl1rV/ZKpCZEmE6pUJ4dP3N+v6Wt3AoXBZhSMhpgiE9JTl625VGv76po8z8iVewVoLRY+maJEURiun2ZpGYmNfJ51XbOVQK98JeLHVcxe4LgNmq67CTVp0VB+cv2BWQsMcUNmwBHNqnrreTOywNHaygaj6w1zX5cHQ6slQF+prtz1tozVo1u7+rK4uwFTv1pPN8zZquWI7mqpCdR9WdBA2Np7UwlgmsInBhF3amceXEHPNQIzFRXSl9A3UpGj6gbn/M3fKJSJEloONfC8bUndylUO6Z0yyKOaqLrXrNjZR5jhiKFk9I5DvHSDxJ7Q41J61Ro+QL6BUrsc88PVO8JQ6Hhe77Tyu977YsON/5GL5P5mj90hx9+ctqPpt1TY8g/2xJR5IcsD+qUQNDl8E+B3zypZ8H+rEqvqvdawuAeEuzTUsC2LvLS42NKa0ASgic1EOovFfrVbtaoh2cxi7EL7ncMx6OGM8DfQsA3mk6Rep4/HRkjOOldUMz/yNNW9Q1qKt87F1nffLhHlO3IUIc/GkCewEuy/y4OQxBhAvOEuQCgxJwdoGeWQeaeEMcISsvHAnTsVFktIOpZW2LhzYv8SkdPlCKeUVlTuMgYsBjqDrqK0IRHg1xwShUklX0x+bUZgmFd42pH41L4TyFRAkPdbKw7OqUusp82nqxlV56ykK/+3WW+vtzdP4FFrr8CpvS9w4G/8ghj/YkWwqjWhcuoLfvdS/t3JWhSy+pTNOzMrXSe7CMd1SiJTeS9ey2JComOpCN6iCHPUv1fuahVnsmZUdiGzNhcPJeodQ0ZmhwQN3EAEdtEnqhSI2m15RuXNjFWaNuTF1twI7EUTARTN2DtG6zID3a71E3lIWVYAq2ZDKn6aePRfa+s1cwg+Iuqia5JeHx/MmOIRorKE7TM5qggYkUvXlzra6qcu8phdlySoHdFHBoyZVZsB95ELXCtjOPwSjCjDl+WlVjmnUuRSHnV7hSYq3bYVguvlrhpER9nNbUWOh971fYY6IrUvDOK6pHD3mp66ibPOCg5vytFKomssNoaQXzUKv9lC7owJP92N7GBhkb1Baq8aepoRoVfnwZrbCBS/Ex3tPlpKblKfKhDKgDNGwu8DQ3LkMC5oid7Gqu/mndHIxkaPWFSY2vWe93F2K0eNtoGE9HRWVZK1y4cLDbXfCSYXLAkyEuOc6c6JtWqht+xJUSc9CHJRLkJFm8JqwaN6kblMYxGKWqyitd4WnGtK7Hnp4IDU7MmBnpOxV495W4+TH3tqrihQHW3IDJHaIjxpGwPdJnoYkhZtMh6mgpsoSikKKxfNxA0RaPxtW9L65tCBTViTduULgaqaFSFbBj29X58ZbNWCkSdhw3polWr0zRsqXq3j/m6poz3qAexDJLHAltM4Xp1sdwo1VZcvB27nvRQ1bE4HIhFD9iw/sO2Klr0Kl55VXVjT2bgdoMbb48QRtRjYlfm96YQNEaJF6iZLeq4oMX+vor/JTGbD6DUB32wLM+HpeVrr3Mp6pa2uS0zoeVH4xHH7jetRd40ZmOzWm3kN+t7g328JBxGe5ueKpVleYqY+OyrVbtEJ23rm+htlaMO4xBD4pDBVDsavkSK715NThFFZZSHmpEIikrzKF9UXvtrMjbC9tqqdaj7kqrsh1SRsP/6i+c1NoWgzPoeEgmVlnrGxL0l7cb31fKOK3pDznjQz62P5XB7An0NSgW4oSX0wpEmK4sEYFRk1P4LoShVxNI02DSRfuP2Mh2RHN+ahyXS1BWffsz6hoxWcx4fY3wtB9fttV+ZfjB+moQ3jKm9pDec2i2VzMSzVH3QIo2+tU1ZFJR5tjmZfXp98R0FGNT4dCqGGJyjSQYU9cr2F7npgAmOqH4dP24/85aom6lRO4rr9NO79nYTgORBE3EU9TgdVK9V93flj7+lqOC5WhsQv9z8t3nsFK9R239PAhZceA+kTxeWp0/exUOY5nsnAr98Lf/YKG+Xjf5sOqvhXyA8GFkxElf+j8Wevc7Zj8HKgUGtS3GBeiF5SvzaWBpLE1EUXM+DIMsFrZTVnFjmqEJIWlv+fI4tbUnYWymqR5Jl2vWRLXCIVOVmRYAxEU+xaoVVjq2y041jVnyw1PNL/7cudNOa1erO1HoHUzT3iPFY8Af3h5dZJQX9nKdPWmNEjAFp20WNhrHiQdRYGhoOEchhVkjPE7jW2iVR93J3Ug4NcuY5hHBk6JDg8Ze+YUdNafubBwvzVX21iGcoBKMaUaKdVlePT2Wzw3X9GXLG5SetDK/9lOdI5PGNOuagmH9VNcwBRXmoWY9KlWefYk90wjtg/NreMhNQRTP45oKo0Giw0d4X2WKunf8BeqPZiz15bt+9glnetNmH2HuLcxv2dfp0MpY8yyRaQG7D7nI5cjQBVvUHdTBKLg7wR/+0h/gRQNnM0+JQqM28oE3PBRRNx53YMTYo9kDY1tVSSNLn0cbh68ER2ZPeAbHUhRAJUUVxafFExefBKlcUp0TK42E952/wjiu1eh7sv3UImDFA+vSZQ20DvR5I9EkMbNHe5VH+UqknRPRycqPhQiys/roeJTObq4u3CyfTYAAF7dMzF5s1VrmQcn1ShVj90qlajxDr8Z6KzUhUQ9EA5PCH3mh87w3qGvEsDK+qjTiVzn7OwuvOyox4bnvdaUpjGzbTELdQd3dlyEn4m9rWxCiAzvMijjc2laE7GBV82jP9CVqxkEVyZWi/NNj0VRRpqCd/KAvJR5n6f2lvnu698VLJIKFS4SDnO52z3V9J5K0jYQTuEXMi0ADwlfYW91R61PemGaUSxXjSZYo1GPeHqr8ll2PojXFZG0HUVtbsT2Vse2MN6g9Hgtde42d2temyBWAgQZWBS+S25atT9LNN6id8OCDgemBUT0ScVI4aaPxqIOiORtoaxKIr1bTI8g/u+NhdNovkGPe2ajWhRklVBUbdLI50dYAAEAASURBVHF6innYMSa52JCiwvSTpWhw60okwJld5bESBVAGUAFSVWkAvZyRuFCQQkQQWCwEGkrEf9dVQOz7YuG4mNdZvipOdvt05xYnKK5YFVvMZiz6tc54g5oR/853HTQ45KC6tjS1r0lRFeJxu7rc9PWvFVhqi94187/gOOjxauqztKw1Ru0tCVrainjq1hTFwGpy2RvV7fqNG7hfihnOOTprvbp95mDGCyRWumE857OjQZsHPs8q9KFd7bkdnbtqemynPro7mphxRt2xmCmc3elKHX+PK0wHuL/f+MHXM6ruRGFGF8mfCiCwFHHhjUgcnSn1Hgd11KidIDtTp0r5++HHk7R2bRTe6CjV1sapuTlG69aGqbs/TRMT6jqH5uqfMz6G+vU9WYqC5SM67qLxcfxo2fmi2WoW2tNZzGibC1Lz7HeCwJhjppuaU+QGB3UGccfjgzYKh/Nx4+Zp6Ym1pAU3VweqWKa0PD3dW4aiLt4ctVWrm83O4TkcHaFTyxWyYmRLGG4nht7pObqnG/SUEVTtRB/pESAJ2Gzd2K6yuDEJShXGixUoo3JS4kQJhpJSYS4F6stHQWBBEOCQsStXNNKeoRB1B/PJ2e0BD20EB/Vc4WQL0gA5yQkjwMWS+D5fC8IAfhXK3oMZ2nqBuk6UQl1mfj7jDeq+vsIHOkZA4Z8z0VLs7xZwrR7sylF/r50yMK5RAJrssNIyFhvVIXZcVfnVT7LUg0qPKy5JgC0CfQZxIlTn4NMuemA4S9duU1OzvqHpNx7d8GRtksXz3pRQlCcDzF6SyVoRy4+qiLjrcCEN5tkOg8hxLIibbpWaKwsbl/hpxyGkrheRs5eq6z1rrXHSAQMvdZWiCaRFukg2KYKAHWXVOflQEhDV6DAO8TOqGN+xTF3bYy70K1ezuTQ/vj8f+lDcii5RLKzMs5/ew973PjulCAmIMKDzZid4PPF53VILbdiY33J6W3hyV+9FMZ6+Hge9cD9Kmz7v1F7P/9xLA30O6ulRdzlpCJMBI0krvMrOEwM8DzVhIzqFhNh82fj8tlLx1UZ4mGX7hSsD5LbPngysbvRSrX/2MrVZ2j1XOza1c0Jb8XvEpWsrg1VhLJKiruE4aBvVTj6fqy9lvyCw2AhcurW4r7atxUrNjbPvl4vdvlN1veJan6qrmfC8vKwO/y2lYXjm4z30RiIRzMYeQ3UhuuIqCzn/Gd5NVEos5J2+5hoLlmOKPyx17c38njqeeJgEd/hA3/Q5ob7PzO03atuKNie9dDhCrhnhxqxuKqbuTYjH2jnrXPTC7tlUbB3tdqryq6vb4d4E9WAVyOm1ohIkJkTgWk3ELPTKUJKu3IRKfKhyqaI4wF98w0WN9MsXhymSzE/0OCTpio01tARFX1SWJGLbH9w5SkdgTOuyEROIK6GbykWGWBcO1XnuYJAGUPbeA4/Q5nYvrWtTt8qq3j/yrhYCtV4bpVDu3o4ITN3U4IJ5fpW9J2V0gZp3+zIUK/eQPbvZOw0WAhjV8JtpLyve2cgOKVzGmvX/yj9nYEzPRuL/+3aOJoLFvfKzjzbfFo4Br66e7VWqATtLuEgZefNpULxF525w0kivjWKINc4d7zemOgyNYFaveDb7qpWoiGifPuasthyt7FD7FvTCPo7pxMpPFEUMxm0UmbBqfNuJVI72H5sy2Ir3uLm31oPpY1NTFbnSTrIlHLSiyk8rG9QNY9HRfnTP+DRjmrfv6YnQDhiiKstENE0/fHaQXu+N0ijYZ5gv/MHXxmi74nqp3Cdnatt//duMdj8MDlspPIr6A0NWPMds9NyLORodLWKUVAhQaj/NFqATOM4nb1KzUY34Trz0Ui/TH/8LcLFFPsVTzxbXAM962rVT3UFdX5ejoSBYWZrTiAU//sLnwQk7NTYV13mRoT+py3V2Zan3kJ2GuvDqttJwDyoJdtup74idBnrUXVFgMJ56LUzVWmXLrMZi4qvJan/vPBqjVFrdPhsOGge39ytMm8d99sCTE/S750LUO5ihwZEsPfd6jP7z18MULzZL5y8oIOyd3t9fvOroa90RBTQwbuIzByYoUYRZ5nnE+EcU5kQ31lj2mBWBsYn8PT2HEL80CsoVhvgFQ2Zt9fzbpW48w/x1185gt2c1vzQb0jNl9paZR5j7b/aSTQ9jmWpvRmEj5sLLctT5AxifSEzkNQUWngR5LBm66PIpHVX7xDehbNpK/Uct5MByrcWCBFIws2TSoNNT+JfKSYnxZJ7dw+XJTQtp4XCWERilLXVqxhs7SlT9Yo57VaUXISuvHppNnTcaytAzuyJ01flqVkqMFTE49T5iYzSHAalqOFznSPEVEX4K9I4laE2L+qsLel/Ju7kRMKpRlsOzoFrNW0dZgJ/xHupImFCKG5USjxtmjBrfgPhvn8fY+1QWuqf5IK9vOmuE3hwrRjsbNqqKw52j1lVJqnGmyJNLa68aF4wybLO51PW8L13CP0f0C+JwU3GEEcSsmjHN/eSGzpUqqhow3B8rEQPOrCUzxeXLUXuDcXGUmceb7e99x2bHu+tt3HO0uOGm7zfzO0LDDYWnPyqPxYwBfSMrLB5qw26XHacAgfAYXFzHc5300+fwbIsjJHN0WN9See9FHgWVp2QpjVautlCVJ00R3GgjCYYDCXvwe1aB57iY17rUucy276zNiJV+Jk3xzFQ3c3x4TSBFzS1qegQZ467eDFU3gwLQncaPNu8FZG8uhxEc7VLXK9iPpXXmaU4gHrdQWLdwqvjkqPA4s37mSonaLHW6Wlpz+Z5bXzU1Ps2qg1G7zuvw017ErEZCVo3CkfuKJ6stDTbqaJyRXWp0EhNuD0aNx5vKBWtK2JzaEFXZQ+1xoMaAQWhHg8pLXCb8fUiTSiOwotlKh/pBZ+tG9WkUJ9PYnaJW5KZZqR0sY5UqJebrlarydL327iYaDTmpypei9vo4XjFqq0+Q25Ghsai6Ridr+b6bnVSNRL26qgQFPEmq9iWpoT5Jl12Ch/1ydbs+jWRRNlpqmrIUAGk8v/izC+QDOi/19F5W46/X9ibJGwC7TCCrJfBZUarV4cpRoC5LaWP7RgnlgprHYnZTI8gDG0cYgapS73dQwOYitxcT1QZM9FDVkpMvO6q9SjNGtNUbe9frAuqysgTcNuJXMWmvcyntoT5raXE2DzdKxbfUqM3MUqy/ZJt5EfjwR+2UhbMrDnaqaNCOol6gfchZ6V3vsJFb4VC4uRBX16qaS7My93esQNB8zkb9o24KwssUgXdwImgD7ZAHnmq14bnySgd98k4Y1VVEXng+OWzgTZfa6YtfVNdzxt062mcnZr9gbmMnnhP84s/M1Tw+UPxhWeZwOK2HZeAjY4ohN8IFqhtgoGkTBjDOsG0Dz6eqkk5ntRCW0Ch7ceGsRlSOxl4yBoo53GjHUdhFVXn5QIyOdqdRgdRKYxh7Y/1WCg7b6LGXIpgozGaiUUXP9R1uTAiKt3bL+uKGW/GjzbWVQzqYHk+n8tJbx5zbl69Tm1+bV0uKTRYuX1dDdgNOcV1/eRcEFhKBH/8c4R2wnzgAk59c/J7E379+RN3nWDn4qLvWWo52ZRyzYqWVWnxp6seDPZQsNMZgfJ6jbjyurvoNf+Kid1zvpGPHYKDVWKhe4QqJuk6dYL6ogrHSsCRLTnhwWZKIOWZWjEhY3SG9rD2fiKiHsej68rtbYQeTHYGrvMjHBV1SicLfGDai+5a3GXtDWXczyxQ1Hher4ZbmlzORe0OHepN0wTo1x2MA1RCrwCU7Fp4+2eHonQ6Fw8W4h5wYjzPCOymNDnM5DGYQ/CUFhOnyQvHp/cXNfuFIiNa2eZUv053CxLwP/Np8z+BKnsyVLmJOBHa8ijAPGNBsVOdN6vx9cQg5a4cOZWnVqsrsu8rU6gTH2E9+ZKc6J3uT2DjLv9Zi+fbf71X3QV8IwaHDWdr5WoZ27cpQPM76qS1chru710M9++3Urb8O2OlYr1fzgKqq3eY1ThQIQf/M8EbbMWmoqsrfkFTUjVk+wkFwaxcZejGsCI0fp1hSUbeZns5CHUrtKzzOjJ/3dcVnGdPcTp4o/PrZCTM2uew2/ez5oVnH8thkDmeVhQ3qYsKc1FzoRWU5OhSjbz/RTw+8MEwPoNjQfz3RR4cGiuursp6V0vbprsjpz66+vul7K0Vn1kNN98kC98ByeKm3P+ukR36Xof7eHK1ai+W/NzsRRjB9ICzwZU/56dKgxvvS38bpoUenlp6bGy30L//swQxxhqfwlLdm4S5Qh6Iunf1u6h3xYikz/+NMo2oiS20tsxOo6c7t7EtpRicnJnLRE57bcZJbIo6lMyMeIk1rc//HvyNmLYmgqzhG3IKu4rAPLmCTRKKKTd2hSOuWuen1rtmMGBwusaoNZcIUlZcPGhsrR/vVNc6GJhJFJ3bcTZxsqXJSYjEOan34ldqnH2PW9yCqP/76lRHKFthhSVDC/vbVUfrApQ6q8VWG48us+J9Mu9ygI46lZ9/YOQjk7HMq1+w8aQ91Cm7C/v5+SiRmP0xOpgNO93c4UP5t77HTn/+lg664BrmoihvTjOf/+2FymjHN2waGcnTP52JUimKJjzOztLRmyefAQx3znXTGpr3YG+h3Jqm1FVaoojI0lskbnNAlAWMzjuWxJIxpTlLMzfBaq6Qie6gdsC1T0GViCDHTiDXmd82YdmJpsJjrWhEFz1ntQSLz7Af6Fef6qVrhkurxEqwyGXZTKyo9cxTbyWRmh0yoomprTfEJHN8bm6rVTbDf3xebZkzr/cG3jb3YJ2I+BJxezkCbfp/AGiXygTArQnJipcoJafbss8/S+9//fmppaUHsqhPGSyuS3by0fPlyuvLKK+knP/lJpeKkpF5/+MOUZ7pQgWPdKIt8oGC6X7hTgc8OxOEuWZGkel+c/I6E9mrwx6i9I0nuaXHwCihT0MRNq5llgMjjR1IiqgrWgBqQGT44KbHKf0I/1YKznv6PPDmthh420CcVig1eeH81KiYqbHgeQZx09/Bsvvo/Iikxw2VYFZWV7cYGWG21umNxRWPp1Su7XV3v2dZVgaLJhxeuCJDXOdtbqMrQjCaNJzkqUziqgv/JtHMk5CAr2I68qBXhsmXIg1ofTmeGoiknHLHTnwMnc36zfqfsu8dPf/pTuvnmm+nyyy+nu+66ixobm5DkVk2xWIzGxsboxRdfpNtuu43uv/9+uu+++8yq7xnVrmjMeOBGo/ywV/MmW+uz0pH9Vmpelp7M1mdvxfgxK9Weo6ZOPDA5OW9Js426B2Y/QG66zq/s2OVldHZqVoFSjlk+uPqjFXceB7zTPIGIxmFUg0NXRfnN06HJMVjYfmZsefylKF21Rc1+O2elj57cHcEqAjqoQJjK8Q1nq1txr8pj18KNOOxolqg7/9FU4UqJ6SJE28yTfskadRlMWqpnrwDpfddSZbxPP0beFx+B5a1Enb0OJCXatftjTnuk4b6P393SCuahLtugvvPOO+krX/kK3XHHHYa9c88999DWrVtp7969tH79esPjZMfiIHDB+Tbq/e1sLzUzRqxXlH2AkXPieR6asFNkIkseX/4pGENlHs4q5n0qy6duraNv3z9Buw4k4eEkCvgsdNNbA7R5dWnPmtl1ZsOZxQHHJxvShaJwxAeVKoDSNzLbc12ot5k/V3vt9NatAXr4lSA4ZLFYi58ZVyhd3+Gkc5apOUlgvCfAWjI2YNUoKa0Fc7g0bpPBIdxDMBit+mA1cwcVadsz+0HqXkSY+ePYcIyWNqhJl7oaJdMde8YphZygQmEqwDWtit/wCxWqoM+fvdtKf/EJfjZPT0b/y1st5FFzGJbVO2UZ1AMDA9TT00O33HJLyZOuWrWKrrrqKnrooYfEoC6J1OLsvP02Fz2zPUMjo9NvRJ/4Kxf5YKipKhHQJ3Hr2YCOcInL48IxWmHsU1k4POLP31NNRzqz4EPP0soOG3jEp3RUUTfm/u1Aie5DXbMndxw+UFNVYNkopqCWKGXwU3LYDXYoouN5HQGNnmx/f0zzfC6pc9IaGDcql+d2ghqPaSmZM5wL8NgQ05lOwJDOWkCnBw+aosY0D6lS4Q+Hh+PKGtR7eyKzjGnWl73xu46F6ZzlAf5TxEQIXH0V0VlL0vRa99S9vdGTpVs/WNkrCmUZ1M3NzbR27VrasWMHXXPNNYbdFgwGtdCPm266yfAY2bF4CPDSeqgHxTMws7dhHLOXifma4yioobIMjuTIg0S9eNgGj1JeFyuS9tz+DJIup37AKuo4OJSl//2PYTrSlZ8YcG7sn73XRX/6XrWn9XZvRmMu4RK0umhlutFnnLSoahIws7Gwd3NmCIFWeAiZ7qpLCxLd+FUp4nVbaTXiww/2YAUobcFr6n5xLhJMVRb+ZU13nUxp4+S1dkXl+cMhw5a/dFQMakNwTuOOv/lkkjq7M1RFU+GLCeSP3npThh54RO3fWSlYyzKo+QQcH33jjTfSrbfeStdddx01NTWBoqx2Mob65ZdfpnvvvZcCgQBt27at1DVl3yIh8PV/StCIFgOJh0YB09U//XOKrgOjSSAwZdwsUpMW5DLj4xayOS3kQ6Jb9vgyoFXzBlrgjVdTJwaGY40/87/D1Dc4ZYhx7PH3fpxAyXgLXXOVmmEfvIw+HEwj0RJeNIzHDCIhbLjzMD0g2K+0ZfjaqrJvRQsyhhbsJBhubDyzQc3Joxy+whU7OZwgUfCbW7DrLeKJUuicnz85Rvu7E1oMfFO1nW64ooYaa9T2Mr3rshr6/kOjqI47tWLCRvY1F6rt6fS5bBROTBkwhUNlRZO6k6Io6AyNJFaCjcboO7L91CPw24eLj8ODfTnqBw91S6u6E7xS6JX9FLv77rtpw4YNxLHUX/3qV2edkw3p22+/nT75yU+S369ujN0sxRTe8Pzzxf0VCdyf9uzM0FaUIVdRbBY7HvAJbXk2b0jntWDDzaEwqfGevZlpxnRh33wPFIiqGtS8jO5yYKUEBpoXDCYzxe1S9+aaAmsoUwKyIZ1hTzUMbP6bJRHPv6v6/zd/MUSjoakHY/9Ymr75i2H6X+9ppJqAmvcO7osAKkB+5PoGOgI+7SBiqhswUVjabMxqokr/NSJBLzw01V+F7a5XmKvZhVjpmfHTum5OJnwXMR0CPFU1cm3t3S0GtdZhb3/724lfoVCIujq7qLunWzOemUavvb0d5ZHV9KCZbjQuUIOSydnGi35qv99ouOtHmPf9rddY6d+/56aGKuQQ42bLwvF0w0E33XKjunrtfM04iW1s3NhLY96eKmhZAgaYdbZ+2biNPAob1Lk04m8tGa04DXvddeHlTbfCpaxfQWGXQmNa14tjxn/x9ATdcm29vknJdw4xUrnwTjHQg0XKjuvH9QdTtLR+KrxF367C+/pWH71wtHjYhyQlmrMHeWX1+KN5WgP5KVZdp+4zepoyRf4oeAQU2Wuwib3RHFNd31CvhX24XOouJxmoWBGbQyU8ZDFQlalKm/eJu+30o/vT1D/uRextftLASUXttTn62F+d1JA2RX9XIQSHPZ3F8qI43lNV4VCWvbuI6pdYqQphOrpEUI584LCVxsDWoiq38ZplTnru1QS5EdPvPO6pjkfyuQoXbFTXwbD/mHHBrv6x2RMjvU/l/TQiYOw/OY2Nmv+lNy/z0YswqIupdy72iZgPgaTFhnrFmWleau6/BKh6q2srd1XhhDSTwi7mG7ilWsShHUbyygtGe8y/nb1LH7kV4R2EhSXWEdNh/vyx25nXWF3Ds7EZYRFFKj5zMqkblGUqSw4TnsGjdjq620G9B+3U9bqD+g46NHaFok9KRZT9k6urKACK31gwX/0xOIwKkKgIuWmdg9YtV9eg9iF5z0icduN9Rt+R7aceAaOiNU6EW7UoXCnRAVenrYi7k6M97BLyceoH1klc4eKL7BQFBzUqRWiPaH6PgZWrCoxOKzrUfUbPBUXZ7jwp7DIXlGbczwN3tiHGW5YsU3dQv/Jyiv7hazloZsW/vH78+Yv/N0dbtmYQ66/m0qYPYTiBuhyND1rJ5cHkAA8MZmpJI/Z46YoSsyMzDr2CNvEkh6tmZZPQJZF/6bu5WqLKkWLMGvGZDzfQL5+coIOdaXLgjrpls5euvkDtPJJLN/voub1FZnfouAvWVm6Wvj4uVXzfsjJAx0YTNDAxlQ3L5B7XbK7DuFR3EvQ6CtMUK1jDhUhf74nShdBbxFwI/J8vWemtN4DbPTw17nhS9I2vWouuwJqr9SffmrINainscvIgn65vWnETzaSnL7twW1KYLfrVLZxFn/8c16Gb+qHq+MIEpc/dk6KfPaCmQc2UeYFahA7AGx0eQd8hv4gL1wQaQBE49YzU1VXmPQVucC9KjLNOHJqjiwXhOt6aLO0/kqRzNqjrza1Cktv7t9XpalXEOycdXndRgH733PTY1VVtTrr8HDFgzNjJbDTfcFEj7e+Laka1G+XG17d6qEbhhETGOVwiNjwcn2JqMWOfnKltWgaH3ZMP2ug738vS3n1E7W1Et3zAQssVduSV05dlGdRS2KUcKM13zLJ2C73eaSOnVgKFPbpI3oMhyssv9Q2zDVLzaVC8Rf2Ds73u+pE9/cb79GPM+n7kaP7hwN5p15Lp2fpMzaasHO+SKkwMEjHQ5oGLmmPfdS88lyNXWUYnMvSLx8K0/2iSXE4rXbjRRdsu88ErODV5UFG/izf5aQPCVl7cH8OELkubOty0vEXyZczclzaEw21o92kvM7fzRNrmxcTASFRO/DXSqVK2g1WZPnGHunbGyfRDWQb1YhR2GRkZoYmJiZPRQb5jgMB551tpDyrucSJAobjx54aN6g70xgbwTSPxq5i0NKlrxNRW27TiOzOLhLCebISqKg6wXaSR4+ZClWC3j63rqUlPEomzHUvU5TUOhrP05e+MYWkzH5ITimTo909HqXsgTR+9qUbVLptsd7XfTpef7acM8hR4siBifgQ4PGI0lCYv2HP8nun3fvO3fnYLeewZCVQVEQRMg0BZBjW39lQXdvnWt75F3/ve98oCJs2lyUTmROBXj8AbCG80xxnr5hg/9sMZKx06lKNVq/Stc57KVAd87vN2+uDtaeQiTn/AWy2oMvjFsoe0qXTixpx7loO+8yMUrKnm5Mqp5jG/sU9hCjZ+IEZDluPFTxCsg2c806+lEE8dR5gux0KqKn98PjppTBfqsOtgkg52JWk1WEBUlXA0Sz9+MESv7k1ofbSs1U43XhugjjZ1J0CFfTERTtM4eKjrwEMdqADDk3V7cX+UHnwuqHG+89/rlrjoXZfXaMY1/62iJBAyZiQpsaiNoJHtpwGBsq2PU13Y5dOf/jTxay7hBCe7vexmz3W6it4/qoU/Iha3wCOYV9hCDz2irkE9OmZDhb0suaxctjpveXIIQSJro8ERdT0yXEWdPdFBVHvkcAitrDUS+RLwxrdvVHeo8jJ0wGejSDCL6pZITuTwFeiaQNXEHD5XBaZPjFTSlD3RRtKLfaoa1FwO/ps/HKeuvin9+PO//WCc7rmtlhpr1b0HJ1F573uolNg1MBVHtQmhLVwFkhmEVJX9XXH6JTjCC2Ufqlz+6NEx+vB16vKGl2IoaUExGxFBwCwInNBdUQq7mKXbymsHPxvyq2WzHxLNoGhTVR56JIspgo3i2QJDTHNiWOgR7LvmzWoa1cFQPikxMmGlKDiaUQkFnmok7rHHGiwZKsu2y93009/GaGLgOC8L1GND+01bneRxqzsWS7U94C8Yn4p13l4kihYa03rzuVjUH5+L0Xu3qZuY+L0/wJgenDKmWbfdnXFywBh99xvVDdN5dk/xOLijqAjZP5qiljo1jc/VLR5qO+ai3rHp3OgtNU6Swi76L1PezYDACRnUeoO5sMumzZu0l75N3s2HwGVbLPTEjtmGGIcTXLdNXSPm6GHWids/W4ejCGVRVdqabCinjtLIYPrgkAjmn+bwCO4vW7HAaoUUfcc2Dw2NZOjxHVMZiGevt9OHblSbXs4NFpZ8TPj0scirC16Fa04MjU5Pii0cakNjxvsKjzPj51giM8uY1tu581BMaYN6AvH7RhLEPlUNaitugO+8oJ5eOhKmw0MxrfjVikYPXbjCr03KjXSW7YLAYiNwUgb1YjdSrndyCHzja1a6fFuGxoIF38dz/9/+0ao0929Ke3CwF3q6EcOGTVLbp+awHhzOUQxhEB4k7jF/rM4MyIZ1CF5rlaW7N0M7XpkyplmX3QfStOdgis7dqG6ccRqd40eFzsg4Rh/H7EBsWE3wY1LE8bmqSkOt8SpPQ43xPrPr2z86FcIys628mpfGTNau/fhm7jX/3001dhoJFh9zvE9lcaCAy9bVVdpLZT2k7ZWNgNq/ssrum3lrVw2u6R1/tNF9P8zSjueJWluI3v8+C61ePdMQnfelFvUEbpcFlREz4NMuNKpzoAfMkEvh8IFEHAY1kveyeOa7vAjzgA3NdHnxkJUCaq7WTo6L7/0sQvHpK7Yaz/Z//zBCX/uiA154NcdkDVgwXJ6kxh3OfaWtJuCuyu/VfnUNz7XLHahOxzH9k104+WHDKnUnQFXe0hNTVY1p7pzLzw3QfsRMz0zyPR+FeJhXXEQQEAROLQJl/coOHDhA559/ftkt+eEPf0hve9vbyj5eDjx1CHAVuls/ZMXr1F1jsc8cgqOTubWdORjVlrzRwsY0c5lEEgobMWvs5ECZYOZqTsSmo3reWWX9VKd/ySR/cYLbvkPFPYPDY1kaHs1SY72a/XbRBi+9fCCqGTGOAjuzEcwRa9rV5Wx+dR8MsyLGNA+pp1+K0Vlr1NSNwwdKSTaH1aE5jin1/dO5rwWJoitanHSwd2oliMt2b1kLvkoRQUAQOOUIlPWUXr16NX3+85+ne+65h6666ip617veVbJh69evL7lfdgoC80Egm8ASO3zULkuaXDCkWZKIj0iQnVIlqmrN55qL8d0ASo+7MUFIYqJQ+Exn2ryOJWoanIwbMyc4YWzO9FDrmPKKg6rSXOugeruXekJRchy3MWNhC23a6IOHV129Xj88ZZTN7Juu/ukJfTP3m/lvv8fYQ42oAmWNacb8qdfC04xp3sa0ct9/eIw+eWOT0uORdRERBMyOQFkGNS/HfupTnyKfz6dR2339618nMZrN3rWV277mBqJDKNPNBnQ+ioANF3iW4LVuVbiwy769aTrWRWQH57QDtHlcmjuTslAScdX33puia7ep6RXkkVhfY6WeAU7gmy5ehOiozIbxzAsJemY7e98RIsEeaszvmPrwO4djdB7KqddUGRtw05Ew11+lwog5YVZVCcWMG8+hEip7qJ/dA1L3IhKJZ+nIQIJWt2G5UkQQEAROGQIndLf/2Mc+Rlu2bKG/+Zu/OWUNkhMLAnMh8L8+CTYMGNB2GNA27ZU5/jlHd951QkN6rkst6v4nn8iHRaRhRMeCoM4bt4GDGpoi2a2v39gQWNRGnuTFjvUWb38kBv7wRPF9J3mpRf3aY8+i1KMmKKIEznC9oiXXnnr5NWMv76I28iQuVleCttirVbs8iZOa4CsBeKiZSaeY+Ny8z2BnsS+YbFusxO+os0/dsWgymKU5goAhAidkfVjhtvjRj35Ed9xxBx7y6tKTGaIhO5RAYOsb7PS/PgSOZi1qOs/1wZ/v/oiVzjm/rEUXU+p59Cjzaxf/XXHCm6qSSmU0+r9i7Wf7ZceL6ip3tMe47a/tV9eIiWGe4HDPnuhYQAfo8BTrSTW2OXj1xyAUx+1U15ieC32F5wlzqSb7BQHTIHDC1kdTUxPxS0QQOF0I8Fzuhb2olgiTGpwYWjO40Mvze6z00dPVqAW4LoqpUyqCeOMZ/MXa5HW2bbMAV1y8U3AcuK3I3YYpAaPR4pOIxWvdyV/JuFtyNFCCou3kr7g43/TA8PTXYPUAIRJJJMlymIfTlSNPACtDFnUpZ7jceCJdfLyNgnJO5ZAPL3IRImAKKiYdreqGixXTR7YJAmZE4IQ81MUUuPfee4XRoxgwsu2UIfC73+fo8e384GC/tE178eeHnszRwyiprqosW27VjJYEqiRm8dBnQzoNT2F83Eo+8BqrKnY7wleQqFdMePuGtUUs7WIHm3AbF3CxOWaPObc/Pz5N2OSymrRmmYs4uZI50asbslTbhLLxqNiZgUN+TZu6xpndwDvNoPA+lUM+mOGjmHCIy7JGdSdBuk5cnIYZdfg1oTDHu66PvFceAvN+kg0ODtLu3bsrD5n/n73zgJOiPP/4b+v1Rrs7Ohy9gxQVRECl2GNBVJS/qEnUxFixJNFoYmLsxhaJLfaCEo1dYkGKKAhIVXo5OI5yXL+t83/ePZbdvZ1Z9+DKPHvPy2e53XdmZ57n+87OPPPM8z6PaGRaAl/ONzYu53/tx8kn8cyIMWVyEt78jzuQLaLqYG08rjNZQ3YHL3IZT7ZUBTOqqTCNepqQQoam8lT7afJeNXnjK0oos0mKvrFt2gMwTDAbPUtPy/bD67LAQzHU6tG6kyaUqtapfdiKzN52zqMJvxVWMqApv7uaIEt6eWgGsIsmyLZvc9SXjWajkZZig8NOY6XjpU6LkQGk2QSux47LqvTzHKrfX3GJF+3b6hvc9dhFs636/U+V+O+iMnqCUCuCOh5PG5WJEX3rPM5rNgllx0KAbsoFghDgRuCHH9RZVd8Iq13GTaNaeTu2J6NTs8KWQt5AlUpOqUiqWulXeswgvh4mG7nI2nf1Y9sGK2oqSR/y6vr9lGubkhK0ae9HZsZRPyhrtgHv0NGCn360BkIh0rIoBp7GS4VIuOnJQrdOfMfss8VVgWh+j7pRoFd4++ybKowcxDOQWhmdesa00q+clqmnQlyLDJXFCJ1SmT64tr0HPXh3YXi5X1WVFHj/mzJ0bOdAfmu+Nwpcx0Tk1ifA90qmr4/0tgACFWXq4qCM6rpNQzkVCuHaVq/2ksFJxlg1GdZkw6jUZSrGWGX8WLtOT18+mnrJe5vfzUeFa8iYpiwmdjKq87rU5tu283ygEIBf0NGBDArHUUZ06V4ryvdR8kYas4xWGnIZe3J376vNOKN3hJVV8v2NKUMsUVusRAGplMGEa/tqZYWh6F+tpDt0aULAJASO2kM9btw4tG4dI8eSSRQVMRKHQBsqqb5jfzAfRtB7puokamidw1dP96GkEH7KY+wiwzq8BZeF93F576PiEgf2g8I9LMhs6w/cLCjDRlWErKJ48b37/Gifz9OqHn1MCr5ZVUMT+CKNTJV3u38B31jjTnkOrFivn6UkO52vcZaVZkO7bDuKD0bfMPSgypZcvdPqXBB5xog8O1Qx9lAX7Y8eq6B2ew4YZ9kJriN/hUBTETjqM+OYMWOg8lNLEwJNReBSSplXOxWRjDOKy1Wv2nzUGi6bydMwU+z696fS4wa3uMcMO+qfalMNT9R+lLfd56Xc2hSTe7DYilLy4qq/VeR5Vzm29xbxdRt2yXdg5tmZSEsNmTMdc+245sLsQBn5KBhMOk4+NjVQ3VJP3PNOydDrZtP3izFZSHKExksJnplmxakUk8u5ZWcYnDxIKRU7zrUpR4lRU+cWaULALASMf4FmkVDkEAJ1CJxznh3/fdeNr5ZRKrawk+3E44App/O9cKgwln37bcjM8tJNQuhK4SEnzDfz6fMNdUAw+lhDGSPSKA2bMqBVCr1gU574ZKqWyLkNoYqIA3omoYjCJJyUy7hdK/6nVVU2/bYrWuGxVw7iQGmt912Vj79wSgZ6duUds6om5/32nLaBbBEHKVtEmyw7hvVKRbKT702r+v2M6J2KrUXRTxU6tFFxxnyPyfYkf3Gp/oTLvAT4rXE+94nskQT4/soi9ZBPLYzAHX924PIrvdhcWOu96NnZgtvv5H04//sZH2q8dngO0CQ3JxVDodLjHi9N5PPYUBY5J4fVaFtpUmK61Yaqch+SKQ2bheyWQMgHGdPecit69eFtyKjBsFPmiPbt7DRmvG8Owg+stjl23P2bNqimcAE3ZfvIyuB8sxquGZBOGT3a5yQhxeZDLhmb3I1ppV0BhayoWOm64R2DuiezDmUZWJCKFZuCFUkjx3EILZMmBMxCgLcFYhaKIkeTElDG5RlT/SijEIJg+3E7cCb1LZhnQ3p6sJfX3x07lBeGUpVRpo8KV0g3pYWqoci53X9/Mq74ZTXFhmuBqolq4p6fnGl/uYP3xV6NycZtbjw/txyllCdXmdMqDOTqizLJuEkMAzSFjLSUZM5HX6Ts5TSp8p9vHsS2XaFHJQN6ODHznCw464SCRH7T3J++WlEeZUwriectq8CQnnw98Cq2vVu+E1vqlE/vTBk+enVOoAPT3IeXSBcHgcirdhxfkFWEQHMTePV1ZUxHS3GADO0350RODotey7w9kwPhKvqGc5qdr16KeP9Bdvz1b0nIovAOH+UyTiVP7k3XO3HKqXxTyym9du3x4pGXDgaMafVZjd7W3R7c9UQJeeH1x1KtJ635CLzyflmEMa0kWb3RjXc/1zmpNJ+Y9d7zpsLocA+1EQ9NCt65l+/kvZIyr24oy45iD/aVhm6K6g1MviAEGpiAGNQNDFQ21/gENm023sfmLcbLzL5k7Il25KYrL3WkIaYm5Vz3O94/1e9XePDAU1WwZPuQQ+nynG19eG5ODT6eR9VCGLeX/1uum15B5f2dv1T/MTVjddmLXkml1JXxrNeWULYWzs0W44EIFStl25b+SDnRI0+JAV1U17frJG0e24FNQMEZ/8wScDREpbgIdO1ivFqsZcbfMscSFX/7zrvJKMj3wgEfVV3yIcXqxdUz/bjscr4p2BTdZ1+uPlzlLJz2c6/UwEseNK5tz379yVJKn/Wb+HoFuY7Hz8ld4zI+1lxuVXDIePnPbbu5l/fvpl9sJ4PixTu24zuRdHux/g2Q4s3Z897cx4vsv+EJiEHd8Exli41M4KJpVkoDFb2TTKpCO/U83od0OYWtVFTaoVE+KDV5r8Zvw7499FnPRRONwJQ9Kg/15m36ISvlFVogD7UpBY9DKF8Mm9lCGU2kmYtATqaVJlfqnyO6UZEezpNKj+ufht4dI2+8kynrzNTxOVRIie+xGOsmR51bpAkBsxDQP7OYRTqRQwjoEMih4i3/edWKfj1CF4mBvS1493UrMhmnkvV6KY/2ZV7soWInXpqY6CFjWpWreeMDDS++oG+Q6uAxXZdKwRaepzlcQJVHNpNxoRCrW93shGtU+95LoZ05qTGewUd/RXqagIAymKdOyggUFwrfnYNC+c89mels5kOKKKP5olNa4dJJrXDyMRk4c3QWfndeO3TO5eudVqqlJIXO8+Fj9nPL6q4rn4VAYxOQLB+NTVi23ygEepMB/fF7VO65lEJYlVHG2JAOAlq5XMPug8FPkX9feN6HGZfxNdAsVNilbmy40lCjMuTJjCfq51OO3KXrvGiVT8WFDg2P22XBnq02tJ3Ad7zU2Pgo/OHTr2qweJkLKlSify8Hzp6caujhVd/h0Ab3TsIlp2fg/fmVqKCY6hxKB3jexHR0ac97gmyQfUH7JKhXorTcHAc2FOo/CsprlRhjlihj1dL1EA91Sz8CmOufRWXIE8GYVsOwbo2xF3o3lVrn2tQj253bqdQ45Z0O9+a6aQ7Ywf1kfO7hq9uEsU6U7bNj+2oHCjfasGO9PfDSPFaMGMbbM/j0SxV4+Z0qbNrmQ2GRH5/Od+FPD5aissr4OOVwjK76qQYvvV8eKFjjpvBcFQf/9Jul2Fmkb7Rx0CmRZezfVSe+75DC/WIsS2Qmops5CYhBbc5xEalaIAEvTYrS8+IGUIRboszYqMfsVjrTVFMRl7K9lGObCteov1UHyYNLKnPOcfz14toJU36Kl66psMFdQ4rSew+FfBTt5Wt4btrqxcKl0ZPBivf78Ql5rbk2NRfhhXfLI27slC5emlv67DuMqydxHZA45FaVLU8aFh2OM25IOvtwljjUl1UYEZCQD0aDJaImNoHs1hpl9vDDSwXVw5tKm5dBlRO5NjVxyJ6swU35pzU/xYeH2WkOejJdWq4hpxVP7eYvNvZqvvh6Fe66NYOlYpu3G+f33UjGNtdWtM8Hlc1Dr+0t8QWyfHCemKinVyL0jR1MJe87JuOnnXQzR8On3quS5NKEgJkIiEFtptEQWVo0gcHH2JFqc6OGbGdvoOYeeXbp6mHXfBg02HhijtmhKa+gI4lSkvnoZiGsAqTdqSE5w4/iXX507RJ5E2F2nYLyqcmHRq20TN9wM1rfTP3pacbHW2aMZWbSQU8Wt4fvUwM9fVpSX35rB9RLmhAwKwExqM06MiLXzxJQxszq1ZQHg56y9+9ngZ350dytqxUnTbTii3k+eGiynoryUKESyRk+XP074zjCnwXVzCuoLB+VFOKR3dEPn8cHH90wKL3sFGJcvseKTp3pA9PWtg1VS9ytL/xIukHi2gb2VinkqDy8jv3Ztydfo6Y9latWk5j1IqiSqYond+90SZkPnyyoxBYqq56RasHxQ1IwrB/jWb+HfkBqHsb3G6rw4/baQlC9KD3gsN6psFE4mTQhYBYCfM/4ZiEocjQLga8XaLjqeipBfqhQVjY9Wf/nI1YcfxzvE+xllzrx3TfVcFtrLRmNbhqO6W/HsKF8f6oWsmAKOtmweSeQkeeHk+wxZdBUkDGdTD74/A48vdPqwL/+6lTMuqOS9Ik87pJTNJx3Jt+boJ+2eHWNaaXzxm1enHicesevOewWTDwuBZ8sqo4S/rxTouN0o1YycceBUh/ue+4AKqpCT0bWb/Gg+IAPk8dQkn6mTT3hevOLEqw7ZEwrNX7a6Qq8Ljw5B1Z1hyRNCJiAAF/XkAngiQjNQ2DnTg2XXhUyppUUB6kC9PRf+VG0p3lkaoi9qjzUs37jwYESGyr22VC5n140cW/+IuCNF2LEFjTEzht5GyeeoibsWbCbsmDsXmfHrrV2VFK+7VEn8j4Ftc+1Iz2DwnKS/OT51MjDqcGZ4kcBhbA4HXwv9HsP6LimDx0j+2hiIud2xvgMnHdKGtLJg6uaKvZy+S8ycewgvjdASo8Pv6Y0gGHGtOpT7SPqL6vgO2YbdrgijOlarWqN6vXb+E6QDeohfxOHAF+3V+KMgWhSTwJvvKUFwgbqfk2FgLw1x4/fXsPTSFuzwo/twfR45HUJ+JkO2WTvvOnFtMv4Pmp/730qp05OMkeaRt5c0oz0olqQ+GqBD1VkBKQeMm7qjqnZP7/8RjXKy9TxpsGmzqakmrvagjXr/Vi52oPBA3iOWYc846cGHfONl5l9vILyjRuZBvVSx6J6gpIIbcO2sNm+YQrR1AXs2ONB/3Seuam3FOnrpVTcstsNSZ0XNtjytlkJiEHdrPhl50dCIJYXurj4SLZoju8U7Q49qq0r0bZddXv4fFZZPvYdCOkWbsD46CaopISvQb18dfDJgQVKl/C28Fs3W4O6oIsVdocGL8Xyhzflhe/YMbIvfDmX92s3ufDuF5Uor/ChVbYNF1D1xE75PG9+gsyrakK/sWBf8K9GMchcWxKVTzdqsZYZfUf6hUBjEeDpymssGrJdFgQGDTQWc+AA45Ov8bfMsaScQiKMLnvlgUqD5pCzvlKoSYlGjfzVSOMb3hkI8zDUTXnimbb/La5Beg7Fu1MsOMiIDnjgKStLems/vvqO92P2z5dU4snXS1G4x0tzMDRsLfTi78+VYPXG2glvTIeMJjIbH29ljIvx9O+aHJhIWndc1FllQDfeYTp1dZLPvAmIQc17/Fqk9FPPs6JzfrTqBZ2AX5xtbLxFf8NcPQcp3KOKMlHXbSr60VUnN3Xddcz82UOpypThrNdU2Me6dXxzbA8coMIfonVTsdTHjeDr8Szc4wtkz0nLotLcuX5k0yuzlT+QSaeUcTyuCvF49/NDM5nrHJAvvse7sEusyBUXlY7n2tpmO3DWmCzK6BHSQL0/4/gsSOnxEBN51/wEoq/ezS+TSCAEYhJIolDA99+24Z57qRzylxQDSWtPPsmC22+1wsHXhkHvnoCPsl6UwwEnvVP+avXZQ8Z0tp3vpCKViszrtsChU4nbR4+iOVdKHHd8MhZ+W4YqqgIZzPRhs2vIzNYwsC/fgzEzJcx6od9XhLHm43vTuqXQAxVTrNeqqtXcDD9s4Zab3oom7WuVacMeyuih1wo68T0WlT5De6SioH0SNu9yBW5fu+cnISuNfyy/3lhJH18CYlDzHbsWLXl2NnD/vVbcn0AUMltbKI0cFXYhg9pFr2CzUPXEVKv+hTK4jpn/qpAPza9K1KibhEhjrKbKhr79+J6GFi7yoKbKirRsP6XvolGgl4/Ccw7ut+D7H3wYdUykYWrmcQqXzUXzwFxU2TIpNdKzqeLEK6IzzoV/1dTvk2PE4yrBOeeh7t7JrmtQ28ju7NCO728seEBlptowhAxraULArAR4nu3NSlPkEgJHQWDpYj+ZzhakaW7yUFNWDHolk386VfNgvyvSED2K3TTLV2+5yYHSg3a4KE5cpQd0U7hqaakNF19gQ1ISX92K9lKxGjKgKyjVYdkBK8r2W1FZWuut3kNhE1zbtp1eVFFaw0rKYOIh49pLFdarKywoJx1rGIcaq8IuDgPbMivdyjrjx24qq67XVCGlbbvrzJjVW1H6hIAQOCoCYlAfFT75shBoOAK7dyqD2gq3xUb/U25j+qT8gy76zL2l2q10k0DGJ13ca6pt8JARmmTxI8vJ+xTUqUO4/Idc1IcGqxPjgjWtspVeFrjJS11xwIZyyoleU0FHpZ/GLfTwhN1hqSruBdIb6kieynx+W3WMOOlYy3RQSJcQEAJHQCD8anAEX5evCAEh0FAEUtKo9HHAiCYv7qHYaRVDrZpdMwj8bKidN/J2nniYYld9VvhqyCgjj6efcjV7PFY885wXnCdMnT4pKWKyVBBjblsLBg80cIUGVzLx3ynjja3L4YN1guFNrEu4aAfK/KgxSFKym542KIObayvoqH+no0I+OufpL+Oqq8gtBMxIQAxqM46KyNQiCWzcjoAXV3mmg5kj1MTEJPrstvD9qao81DvC8lAHAo0PzXKrIVWLi/gaMat+8lD8tA82ytlcO2ZUKTGZxsvqxR4y0Li2Hl0dGDM82nBulW3BzAv4luhOSzYOL7LT/Q/nGOrBvfULt7Rva0dGGt/zR/A3tIbSGr7+URle/7AMqzYwjjsKKiR/E44AXxdKwg2FKNTSCSgndAVFTqdT3LQyZZSJpi7/7kPeaq581KTEdhlkOFN5+LpNVedu287YyKm7vtk+r17vhp0GK4vyMwfTTgczYqwlYzs/l2+4zlUzMnDMYBc++bIm8BRh2CAnzpqYQlkw+I5XLAd03cI8ZjvWfk6ehSv0Z4vuKPJiX4kXbXL4Xu7f/Lgc85eF9FuwvAbHD0nGRadl/hwWWS4EmowA/9vWJkMlOxICjUvgPMqvrUzoCjKnyymCuorS5ZWRgV1D75OY/1JHj9ZXYGBPymySwtdAc4Y5cZUhHTSm1ZHi/JmMEo17NDXM1gf0cmLCsSkYT6/jj0lmbUwrIvsM0sqpZcrY5hzysYsK1Ri1ov36ExaN1jdT/4at7ghjOijbohU1WLdZPNVBHvK3+QnwvWVtfnYigRBoUAInjreR+eyhf2pKIsUbB/zTKs+2hrNObtBdNfnGli/TD+tYt4kyfrgpTIKp8dmzqxNLllMKjLqN1B3Yh/fpdSWVVf/z/RWorKpVzmKpxiVTk3Dhecbx1XUxmO1zMmWU8ZNtadV5cMDdQ+2JYTMnqUdBTNvaLTTpwqCt3eRG3+76oS4GX5FuIdBoBPTdRo22O9mwEBACRgR2FiJgTNsoZrr25Qtk+lDBH4WUroxrUzHUW/fqG9TVZATs2a2/jIO+X3ziR2lx5Nj4KXSnaIsda1bHsHBMrlx5uR933hsyppW4KqTlxTdc+O57nRsIk+sTFK9daxtsftvh8Jxgv9KtXaaDdQx1LJPZQ6kqubZYEUa2QPJ3rpqJ3IlGIPJKkGjaiT5CgBGBDRuVsJZAdUSV3UO9VLYPSvSFTVsZKVJHVBVz2yq5Tuehj8pR2LpNLFNA/3tm6V263If9u+zY+aMd+wtt2Lvdhh1rHZTD2Yq33+ZreM5f5Ka4aX3Kb75jkCZDf3VT9VooJufy8zNQeZDSU6qc6DRELso446JKlzOpP1GbPZZVanKlO+cbZyjplKfzqMHk+oh4iUuA9zPJxB0X0awFEujUMah0tIHZqX10X3BtDn+TVZYBldKjTnPYLUildIFcm+eQzeyuJgMtNGcqoM7BUr5ewTXrjONxtxXy9byrgRnS34k7r83Gp19VY+8BPzqQUXbqhBTktuVtnMU62jjHhm/aYRzysWmHB8f05xuCxPW8J3LrExCDWp+L9AqBJifQt48FIwdb8O3K6EvjNb/ia3Sqi/lmKsVNdegoRlzFhNdmMPHSuyqvFbsKNbTvwFM/BznPvAa2Z5s2TX4INdgOXTGc66o4D/fWrbMdv7oksTzSqfQUqFQnk05grMJnyzIbvC2Fxgfj1l0GPz5mOoq4iUFAQj4SYxxFiwQhcNpkpUikQZ2ZBgwbytPgVNqo3L7KN+2l0JXqsJeH3qsQF5s9Ul/1HS6toIvxuIwcwddf0TmiAmTkaGRnGescuaZ8akoC/Xvox1UlU+7tbh34HoupNJHUqKXEyCtu9B3pFwKNRUAM6sYiK9sVAvUkUEbepbvuV6Zn5AWkrBK470G+bkEvTYhSkeC1TeUsUfrV6qj6d2wLLju0CqM//QcahQloGDzYOPbT7CoeMzQsH2AdYY8bwVevOqok1MfJo1PRKS/ScLbRFX76qRlIcvK91I8cqH+joAZv5ADjZQk1uKIMCwKRvz4WIouQQiAxCSz+RpU+jjSmg5q+/h8Nf/1z8BOvv3aKk3aSj9pFRnStMV0rv/rkpKmXdhvf05CL4h/sTg1ed+S4JaVrUHmBe/Y0MrjNPYYD+toppthC1R4jb3ZUUgVVbl2a+QgkU7L6G2bk4NtVNdi2y4P0VCtGkMGZT5USObeMdOObgUSoAMl5bET2SAK8f2mRusgnIcCawLzPIo2XcGW8fB3UgWIZKltJMhnPKrd20AdvJ4PaQ5/bMa6UqHI0p+VQqXHKFOFVWTHo2u9M1uAgm7Oswng8w8fWjO+3bPNFGdNKTlX8RGUAmfoLmQhmxnFTk3xHD00JvMwo35HItG6zcQz1us1u9CuQG7wj4SrfaXgCxrd+Db8v2aIQEAIxCFSUKwPMyAgz6o+xQZMsUjHU3Vv5Azm2lRHtpJeanKiM6XSbhvyOkd5dk4gdlxh9e9sC1RGTUjUyrOmVVWtMqy/37cnXX7FmvbERs3od47u7uEZVVjITgVhnB6tYMGYaqhYvixyOLf4QEABmITBxkpUcnMp/W9d4JiMt1lXFLArEkKOKimnYSTc3GdE1pKX6q4xrt0a5thlP1D9uhDOi3HgQQXamBQXdeYZ7KB1i1ctwUWXLRGi79/iwap0nZjnyRNCTuw4Dexl7oAf2NF7GXW+Rnx8Bvi4UfqxFYiEQk8AZp1tx/e1Wyn1BsdRkcKqm/lexxuNG8zXOVKXEnQctpEetUa280+q2wUWfNYoZ37UL6NJFacuvffaFK6rqntLiYJmGlat8GDKI5ynWTnaKxaKRbtF3ciqkhXOrrtHw50dLsW1nyNM+iMrE3/irTKh4f2nmIuCM4U1Idsp4mWu0WrY04qFu2eMv2puIwKZNytCsrZSoxFKXCmW6qIqJpeV8LxyBSompShcLhXnYAoa0+qs+qwJunPM1b9upbg30245Cvq73GpeG9Gw6GsmoDjUNyWl+eDVjnUPrmvfdPf+INKaVpD+s9+Kpl4ySOJtXl5Yg2Yr1xpU5v19nUM6zJYARHU1H4IgNao/bg6KiIipPKwfEOueQAABAAElEQVS06UZVBGJJYNuOoNjKJ62CP1RSOfUTtWA7FT/h3C7/P/1TzTmTLUhjXCkxLcX4RqdtG32dOYyjq1qj7CVAVls/0rJ9SM30I6uNH6kZWqBUNwcd9GQsK/dhy46QZzp8nW9XGMeNh68n75uWgMtjfO6LtaxppZS9CYHAnPT4MSxevBjTp09HXl4enElO5OfnIzU1lR7XdsH48ePx1ltvxb8xWVMICIEIAgXdIz5GfCjoamy4Raxo0g82rz8QQx2KD9fIR02eTpe+cWNSNaLEWrOINNJx2LqrKJRlU9TqbDrSkq2oqaTqlnRPkESpfpNp0qXKbuilKtDptIxr27lbZ7AOKeOnRV46TqWZi0CvLsY50Xt2lpzo5hqtli1N3AF+c+bMwbRp0zB27FjcdNNNaNu2HbKzs1BdXY2SkhIsW7YMV1xxBebOnYtXX321ZVMV7YXAERAo6G7BxLEWfDq/jkeGbOkbf8fboH76GS9l9wBl9wiZ1Mos+/Bz4M5KDalMvdRbN1tQ7bcjp7MXjkM1JqopXvzALjsWfu7HOdOO4EAwwVcGDXCgukJNGPUH0gCqytUelyXgnR52Jl8jJq9d7JsBuz32chMMTYsToX+PJAzrm4S64R2DejkxuLdMSmxxB4SJFY7boL7uuuvw0EMP4dprrzVU57bbbsOoUaOwfv169OnTx3A9WSAEhIA+gSceteLue/x4jQq5qOwXnfOBe+60YvgxfA1qNSnRdcjxp7QI10TdOmza4MfAIXwnXbo8VhRtdEBVpdNIoeCE0hSKG+faOnaw4eLzkvDKHBc8YSGsA/rYcNpEvkaM52eiOvyUaFuleZRmLgI9uziwfH3kBGDVZ1F3etKEgEkIxGVQ79mzB4WFhZgxY0ZMsQsKCjBhwgR89tlnYlDHJCULhYA+gSSyVe6524q/3AW46fG6+sy9qWuesqf1fH/KoE7L4HtRzG2v4eAWkp+UpPuGUCPLuueQ0EeO76ZfkII+vez4aqEbapLi4AF2TJqQBEeMrAtm1zP5Z35PYkybbwR3FXvx5icVUdl03v6sEj06O6ncOt8nJuajLRIdDQG9a1zU9nJzc9GrVy8sWbIkall4R1lZWSD0o3379uHd8l4ICIF6ElBGaCIY00ptZaR0ytX3QCc7rOhGoS5cW89BlKnEWifulozppGQ/WrWO6/RqatXT0+hmiMLcveTZTUkiXfWH0dQ6hAu3/0CdsQpbGHi6oEpBMm8aKVJy0I9EyReusnyosdFryyXLhx4W6WsmAnF5qJVsKj566tSpmDlzJqZMmULlgtshJyfncAz18uXLMXv2bGRkZGDSpEnNpI7sVggIATMSeOQJB86fSmkBaeaXMp/V9VGlA3ziEd6PbU8YQx7cBS6arOeFl8qPW8iGdtAEPicZnyNHxX16NeOQ4dkXqzDnv/SY5FD7ZpkXb7/nwj/uz4Bd5Ttk2JKclD2HbhCsOjcGvp8JB+Gg7pLvXXjpnUqUlKrQFeD4Y5z4v6npSEnmOV6KOSUUM2yS5cMQjSxoBgJxn/Fvvvlm9O3bFyqW+uGHH44SVRnSV155JW688Uakp6dHLZcOISAEWi6Bvv2suPRiG555mSa6kTWtfLdnngyMPoG3F3fYYKr/SKlD7WRAqzRzqqmbhUya3NauLV8jZtt2H+a8R8Z0HRW27PDjhZdrcMWMlICu3P5r24YmkVZQqkYqER/elAfUXaOymtRROHwlk79f/aMH/3i+4rCUKmvJgu/cKCsvwy3XZB3u5/amV1cH5n2jL3XvGBlA9L8hvUKg8QjEbVArEU4//fTAq7y8HNu3bcfOwp0B41ml0evQoQOSkw9Nc288eWXLQkAIMCTw4vM+/POlkBGjHrz/Zx7Q6i9e/OFPfGMgH7nXjcoKG2xVlBbQoSoLqtRyNlSQJbrgcx9OOKlep1jTjOw75Imua0wHhftivoetQb19ly9w41NWYkEKPUlQnmofeayVkZ2arp6g8J2U+DJ5pvWaKlpTuNuLDvk8j8V+BUkY3j8JS9dE1rwY0icJAynThzQhYBYCR/QLU95oFVPduk3rQNhHUqIEe5plVEQOIZBgBB57gqwWnfbvtzTceIuGlBgFUnS+Zpqub79TetGERL8VvsjrPeZ96mVrUFdRKkOj5o5RaMPoO2bpV6EPSSm14RDVVVQ4iTLpWOlGKC2TCtnwva8L4C0s0v+NqYXLVrnZGtRK/kvPzES/ghqs2uAO3LQO6OnEyAHJkuVDwZFmGgL1et4qhV1MM24iiBBgQ0ClzdtfpS+uyoxRXKy/jEOvKyK1R6TEJWXGRmnkmub7NHa0w3AiWI+uR+SHMYWSHfLsFE9Mce6U7SMzh6o/UiXIjOxaYzqvrZV1yIcK8TBqJaUxFhp9yUT9KhRn5MAUXH5OFq44NwvHDkphPVYmQiuiNCCBuM+MUtilAanLpoRACyKgcsUq01IvOlX1K4Nbf6n5IeW0A8q2kPwqLUtYU0Xju/SM7AtbbPq3PXrY4KJKiUlpWoRq7mqgX1++einwv7s8A/c9VU7hHaFhcJB3+oZfZoQ6GL5TOhjl2e7dg7n7neF4iMgtj0DcBrUUdml5B4doLAQagoDKNqCRwWnRyX3lp+mJ6Rn1elDWECI12DZGHmvFnr0+Mj6VCV1raFotFMKS6cPIEXzjO9//yBUwpl2BsFylF8WH0/+qDPkHn3pwyYUNhrDJNzSwjxP3/T4bH39ZjaJiH7p2tGPy+BTkZPE9DhXEtq2s2LUn7C4hjGxB57gv9WHfkrdCQAjUh0BcvzIp7FIfpLKuEBACdQnkt7agcB/lMT5UR1AZZ8qYdtIZqF3bumvz+XzxRUmY90UV7Mk++CkeVzmqrZRSrlNHC449Nq7TqymVXbjQF9AlOZCwSY1WqB04EPk5tITPu/x2NlxG6eQSqWn6tnRARRVf3ba1Tq7ARAIgugiBZiYQ1y25FHZp5lGS3QsB5gSK99Ve7X1kUnvJkFZ/lVnm9fpx8CBfA02FRtxzVxLSaVKlzU5p18iY7tLRikcfSmNdUVCj+W06DxQCR6HHxTvkg/lPyVD8VjnGl3Pu3ndDpWWBEDARgbhdKI1d2OWhhx7C66+/Hhcar5dcQdKEgBBgQUClIlPmtPJO15Z1UWJTpgV6KdNs21Y/sofw9J65qCT3P+/3oWgHTWgjZdStwer9Frz1by+uvZVvyMeAfjZs/sSPNJqwFx4e7qqywME4V7M68hK1TToxBWt+Ko9Sr0+BnW7y4r7UR31fOoSAEIiPQNy/ssYu7HLRRRfFVWFxwIABsNvjFjs+CrKWEBACjUZA5flVhqbyn9X6pUO7Uv1l0TZAaAWTv3vjBS9+2ERakNUZ/sR99otenH6uHd17GnsNzaxa125UgMdlRfk+yoCRVGtU+9wWKkFuwYB+4qE249gNHeCgeHArtu4MHYmqVPx5p/EswmNGxiKTEIhFoF6WaWMWdlHFYdRLmhAQAolFwOFQWT6UPzrkn1YaKmNalR8fNJin0al0eO9t46dlX37iY2tQ52TXjonfZ4GbvNLhrVNHnk8TwnVIxPfvfFwdYUwrHdXN7MP/qsBTf8uBjWm5eKVHRaUfz75RgR/WegLnjYF9HLj8gnRkMp7QrPSSllgE6mVQB1VXpcX7D+gfeAX7gn9VFcWUlBTxIgeByF8hIATQijKS7S+3UoiHCvNQGSNq31GFbmRlRhpsnHAdiBH/vWWzKrTBM13Z8cc50DrHjf0l6rYnsp15Ok+dIrVIvE+fza/RVaqyWgsYokMH8gxB8lAhoVv+dhAHS0PH4tKVHvy0uQSP3tUKTrphlyYEzEAgbtdQVVUVVOq8tm3bQk1SvPLKK7F///4IHVRsc2ZmJj744IOIfvkgBIRAyyWg8v3up9LOqilDWmX3UH9VozmJKCwMXSgDnYz+a5VjfDHvXhD36dV0GqemWfDgfSnIyw3ppwri3nJTEoYMPSI/jKl0rKRKkB98UoPnXq7CvC9d4Fz9MQi2psb4d7R1p/GTlOD3zfr3v/OqI4zpoJwqVGzuxwYVo4IryV8h0IQE4j4z3nrrrXj++ecxY8YMChe04JVXXsHHH3+MTz/9FH379m1CkWVXQkAIcCKg8lArs6zWiA6/6Ncaaw5nyGjjpJeS9RdT7fjbgx5dsSdMifv0qvv95u7s3ceGN19Lw9p1PtSQl7NvPzs9Yuc7VkGe23f6cNtdFQh/uvDGXBfuuysdwVCX4Lqc/trocPOqhyI6rVsnvsfistUuHY1qu75f7cYFZ6QZLpcFQqApCcTlQvFQ+aWnn34aTz75JB5//HE89thj2LRpE3r06IGJEydi+/btTSmz7EsICAFmBEKZIpRBFnzVKpHKeM7USafaApMt6w5HhzZWdOke1+m17ldN9VnFvw8eZMeoUY6EMKYV3Aceq4owplXfzl1+PP0clYFk3FKp6I5RU08XuDYXhXwYNbfXeJnRd6RfCDQWgbjO+Lt374bb7cbkyZMPy5GTk4P3338fHTt2xJlnnkm5ZA8eXiZvhIAQEAJBAmpiVHiZ52B/8O++/Xwviv9+3ocKyl3iIrPaSzcKHnrV0PsN+6z4bkko20JQV/nbvAQOlPixIRDbHi3Hou9owptR8u3o1U3Xk5psfDk3KkluOiV0BOqUb6On4jrnCOrrkGuss86mpEsINCqBuI5GFTNtpee28+fPjxAmLS0N//nPf1BdXY1p06ahpkZ/UkTEl+SDEBACLYqASt2VnqqvsvJcd+jAN4xgzWqllyWQrcRNhrUnkG279rS6Zo2OEaCPQXqbiIC6uTNqsW76jL5jpv5+vfQnizoo2qN7F74hH2NHpMCRQnmCrKHfk3rvTNUwdjjjx1tmOnhElgYhEJdBnUTPiy688ELcdNNNuP/++1FSUnJ458rY/uSTT7Bu3bq48kgf/qK8EQJCoMUQMIrtVJdIj5svBjW90qhlZRotkf7mItCWQnGMyhhkpFsC84OaS7aj3e8vpqSibavoS/ol56QhPS26/2j311Tfr6zSKHUjZQiiG/OkNH/gZaH7A3elFRXV8hSoqcZB9vPzBOL+lT366KMYMmQIZs2ahY0bN0ZsuWvXroHJiVLBMAKLfBACQoAIKK9gjdG8IrJHi/caG6VmB+i0qAt6tPwqKaA9otSL2TXRl0+lLFv2vQcLF3pYl4gPard3n5/K3Qc/Rf4tLad0joxDPrIoJ/NfZmXhnCkpGNTXgTEjnPjDtZk46YQYwdWRCEz5aeuO2gHzUVEhFxnR6qWKDKm2vTDGIwdTaiNCJTKBuJ8DtW7dGnPnzsXevXuRkUFJZeu03r17Y9GiRYEQEMn6UQeOfBQCLZiACvnIawMU7YuGYKdl7fP5hnyop9BOMpzdgamJtXooYzqJgkAqKO8257Z2rQ833FyF0rJaLdQ4XnuVE1Mv4DvDzeuLvvkJjhFjWzqoQsATfe6pBvFVh9fi9SYny/h3lJ1pvIyXliJtIhCo99Go8lAnJ4fueGfPno3TTjstwMJGZ9xzzz0XvXr1SgQ2ooMQEAINRODWG/RPNb+90gInz3oTATLde1EIARnQKWRAJ2leJNPUxORARDXQj3EFSJWn+eprQ8a0UjZQde9xN5Ys0U8T2ECHSuNuxtieDuw3EYzqxgXY9Fs/fngS1I133WajU8qYkXxv7urqI5/5E9C/ytVDr+LiYqxZs6Ye35BVhYAQaGkEzjnbgkf+ag14qpXuWenA76+34Pprj/oU1KwoK+lptAr6UL5pVdlZaaPeq4wfrkOPpekju/beu264DMJ0nnqCb9B7rEmJ7AaphQi894BPN7+2j354e/ZKDHULOQxYqBl3yAcLbURIISAETEtAGdXnnG0LeDpV+EAitC2byXCmzB4qXtp2KJbaeyiF3tq1GkYey1PL778zNlS27zReZnZt1cRDo6YyzlitxsuNvif9jUtgORVvMWor1rjRv7d+dhOj70i/EGgsAmJQNxZZ2a4QEAK6BBLFmFbK5eXVVoBU6fLqBkLk5eqqz6LTRZURjZqbcf0TCxnMHvK8O3QiBdzVYkwbjXmz9scYlhiLmlVk2XnLJHDUz1vHjRuHW265pWXSE62FgBBo0QROmagu6dHGp4OKTow7ie/lPiWVDM+q6KH1UWU6zk7crdt8qC6jLBF17n685AStKqVQHS9f73v0aCVGz7ABxpMshg40XpYY2osWnAgctYd6zJgxUC9pQkAICIGfI+ChmOPiPRratLGAcznkoJ7fL/IFsnx4KMxDC0RPqxhqDTbNh++X2HD8iUftswjuqkn/dshXcmuoKbXATkU11K2BSlXm91nQsQtPnRTAju1pdOj+p3y/NeClttg0+L0WKIPaQbaZ3c5XN6VfaZkf77znwo+bvMimNHqTTnJi6GDeIRE9uzlw9qQU/OeTyEcjp5+UjL49eeumxkxa4hA4aoM6cVCIJkJACDQmgcef9OORp6lIA3kHqfAqLj3fgjt+b1xoozFlaahtL1nsD2T5oMjww37qoEm2eoWfDOqG2lPTbmfy6Xa8+JobzjQN3ppaI9SWRDcKZFmfMp6vEdOqlQ29elvw4zqNQj/UbULwKYKG0WOCI9e0rBtqb6qs+vW3l6N4X/CJiQ9fLfbgqsuSceapocxcDbW/ptzO+aenYkh/B75fVRtPPaS/E70L+B6HTclO9tV0BMSgbjrWsich0GIJPPucH/c9HrzQU2YMerL+whtUSIPe/PkuvoZMaaUyyGo9uEHTLDjIxTp5t4PLzP63S3crrB4r3BTiYSdDGpRw208GqMttxcjj+Y6X4v73v6Thd7MqULiDdKK6IDa6CvbuY8HvZ6WZfVhiyvfqmzVhxnRo1WdeqsG4E5zIJI8156Y81eolTQiYlYAY1GYdGZFLCCQQgX/MDhnT4Wq9+LaG228FUlLCe/m8b5NnRdFB/2E/Z1ByFYnbqRtfA2b+PB+qKLxDeXBVmE54+8+bPhxzLN9LR247K176Vwa+XeYJpF3r3MGGYUPs7DN8/LCuzkAdGjQ1fj9t9GH4UL7Ho1KlvMKPdRu8gWqWKtSD+w1C+G9K3icGAb5nxcTgL1oIgYQnoHL/lhyqtldXWY0szz3FGrp2qevfrbumOT9PnGzFsvXWQBy1MlfUbYMyr1XlxNEn8DVg9lKcu1HbW2S8zOg7Zut3OCwYfWxiTWhLTTb+DaXEWGa2sdGTZ/EyF2a/UhEIF1PLHWS5XHFhuhR20YMlfc1GgO8Zv9mQyY6FgBCoDwGVJq9dK/1vqGX5ecaGgP63zNM7fYYNAwusqKFI6mpKnadeKi/1VTOs6NGT7+m1V19j2WMtM8/IxJZkx04f/vlsFe66twLPvVyFffv5Z/cYP1Y/HCKfPPK9e/FN/L672IenXgoZ02pkldf96ZcpbGe3vlc+9ujLUiHQOASMz5qNsz/ZqhAQAi2QwK3X659qrrmMd7aPpCQLXp/jwB9vtGHCsVacMd6Kf/3Dhptu0TduuAx9Z4qhNrrNyetotISHditXe3HNzeV492M3vlnmxVtUFfKqG8uxbQc9SmHczpichFPGRR53bVpZ8Ieb06h0N98xW/K9K1AMqu7Q+OlByaJlxkVf6q4vn4VAYxOQkI/GJizbFwJCAOedSynX/Fbc+7Af+w4CaRQzfc3lFlxzlb6hzQmZMqovu9wWeHGSO5asCz6nWFWDFb5d4MNFl0UabgarmrL70aeqouLCKyo1PP18Nf56R7opZY5HKFXl8dpfp1JqwBos/8GLnGwLpp2Tgs6d+Hqnld5VVUZHIi2r5v9kIZ6xlXV4EBCDmsc4iZRCgD2BqZQmb+r5NrjJqeRMrPBVeDwaflyvIZUSRXQn7y735ovxJN3L2JFbvNeP3cX6RtgPa7x000eFa5hWrnG5NPz+zxVY82NogL7+phx3kId6xDC+N0C9KD3eB1/U6P6kenXnq5euQtLJmgD/Mz9r/CK8EGh5BBLNmP7wvz6MGOnBmRd4cfLpXkye6MamTfpGG5fRPnasjaZV6rcTxvH1eCbFuJFzkG3G1ZhWI/Xa29URxrTq89KN0b2PVEIZ21zbMYMc6Ncz2vfXq7sdI4fGGFCuCovcbAkYnTPZKiSCCwEhIASaisBKKt7y21t8KHOF9vjTTipac4mXtRHTiaohnnNa9OWhY44F51wcbdyEtDf3u6wsKwb1078hGHs8b2/np1/Uqad+aCiqqMDg6rUxHjmYe8go9zlVV90X8roHxd27n/dvLKiH/E0cAtFnzMTRTTQRAkJACDQqgVdeDFVIDN/RbooT/2IeXy916UENH38aLf/OEg2L50cbN+G6m/39Ddekoba0ekjSvj1tuHJGaqiD4btKigM3atsL+Y7Zwm9d2EfHXd1WUgrMXyKTEutykc/NR4Cvq6H5mMmehYAQEAIBAqtXR1/og2g2bzFeFlzHrH9VYZcKfYcn/jvHi7En8b10qMIuTz2YeIVdVDiL22DM8nL5+s5U2jyjtruYr+fdSCfp50uA71mRL3ORXAgIgQQhUFFlrEhlOV+D+uABY9kLdxovM6ZhriWJWNglI8OCcgMvdc9ufC/1sYrSpDj5pgM01y9CpGkIAnxvWxtCe9mGEBACQuAoCNQtyx2+qRr9xAThq5j2/X4KWTFqu/eJEWPEpjn7SyhMx6j9sNbAdW30BRP1V1dS9VEdJ7Xqq66UY9FEQ9XiRRGDusUfAgJACAiBIyWQFGMemzPpSLfa/N/bulWDR6e0i4qqLmd8oxBOdv8+P9au9aG01NgQDV/f7O+Nwj2U3PtIV66tmiZVlh+wwhM28ddDodOqTy2TJgTMQoDvcyCzEBQ5hIAQaLEEhgwCtn+hr/7AgXz9Ffm5VN6ZSqj76Z+NSrwoP6CP/vfSK59ybXNuNTUa7r67Gl98Xev2tJBy555tx/XXJbNOm2enq7lPx5OrxqprF/3MJhzGsWd3G+lF4SwlNlgstTc/mlbrme5ZwFcvDuxFxvoR4HvGr5+esrYQEAJCoMEJXHypvk8ijTzX40/me3q9+DI75aH2kxFthZtMahe9vPRemTEXX8hXL3UA3PmnkDGtPmtko82Z68WTT4W5QNUCZi2Vqo8aNYu6a2DaxhzvRN9etYazMqQPG9NkaI8bI3momQ5rQorN+8yYkEMiSgkBIcCFwOr1VDyDDM3woAH1vtRjxf79XLSIljM5xQJ1q2Ano5pMmMBLGdjKZ926PV/jTKWWm79Q34375tt844zVCLbPNfbWZmXyHTO7zYJ7/piOE461I52ejqRRdsPjR9px753pUJNLpQkBsxAQg9osIyFyCAEhwI7AU8+o2FRLwJOrDGv1Ul5d1ffaG3zjVj+g6o9u0kOZ08qIVoa1akq/F57lq9emTfrGtNLNQ/a0z8dXt8kn63tru1ORnh7kzeXcnn+5Gl9/40UFTVCspMw6i7714l8vxkixw1lZkZ0tATGo2Q6dCC4EhEBzE9hbEpRAecrCX8CCReF+6+B6PP5+/VWtYakMai+Z1LXx1LU3Cj9t56GDnpRt28X2aHIuPX7yuCRcdG4SbGFXdWVM/3FWOuvY8B/WePHfT6ILuHz8Pw+WLef9VEHvGJU+vgT0AwD56iOSCwEhIASajICVjBcjp2Z2ZpOJ0eA78sWyU/x8bxTy82xo18ZCpayjdRjYn2LEGccaq4PgkmkpOG1SEjZv8SGTwjyUZ5rzTYLSaenyaGNa9au2bIUHxwyNkWqndjX5Xwg0CYGwe9km2Z/sRAgIASGQMASG94s2zGqV03D2GbG9oWaGMHKkseyd2hrpbGaNQrI9+EAKUupM4GvTCrjnz3U6Q19h9a5VjhXDhznQqwdNLLUajyMXpWLdv8VaxkU/kTNxCIiHOnHGUjQRAkKgiQn89S82nHSmSi4XbrhoyM/ScMaZfONWL/o/Ox77lws1WqTPRU1QvP4Gvnqpw6MHpVqb+1Y6Pv7Yjd1FGrp2tWLSRAcZ2eFj2MQHkuzOkEDMewLe93aGOssCngQiz5Y8dRCphYAQEALNQqCghxXnTrHQVD2VpVmZ1WoCn4Y7/mCD3c7XQMvKtuC5p23IsKopln56aXDQ32svJePzDP6P2L/+2oO579LrPQ/+Q3+//97bLMeP7PTnCfhiDI1RuNXPb1XWEAINT0A81A3PVLYoBIRACyEw738a3vpIKau8trXuMlX85LrfaxgzBsjK4gvi2DEOLFxsx+L5PlRTQoVjRlnRoTN/H8zrr7vw6BOhuNwfN/hx0601+Ps9wNix/G8W1BFXWuYPeNydCZBWLi/X+JiLtYzvL08k50rA+EjlqpHILQSEgBBoIgJvvh3+zFl5pGu90i6y1z6bF76siQRq4N2kZ1hwyml2nHm+PSGMaY9Hw5NPh4zpcFwPPMS/pvrCb9yYNrMU0y4vwy8uLsW9D1agmipDcm5jqXiLQ+c+x0buwPEJcgPEeXxE9hABMahDLOSdEBACQqBeBMrKjFcvK+NtyBhrxnfJ7l1+eAxCCPZSIR4/41luKoXcXx6sQml57XGnVPmKcjff/qcKvgNGkq/90YPUTB9sjtDvSb1Py/JhzY8Gg8laYxGeKwExqLmOnMgtBIRAsxPo1cNYhOHD+cZQG2vFe8nmTbENME3VIWfaHp9drSv5eipms3FLbL11v2iSzs3bKRM6eaizWvuR3c4XeKn3durbtC1WfkeTKCBitBgCYlC3mKEWRYWAEGhoAuVUuc2oFRcbLZH+5iKQnGx8k6MdioFvLtmOdr979xtXefz2W76GZ2Z6yExRed/VK9gyM8I+BDvlrxBoJgJyNDYTeNmtEBAC/AnsLDTWYctWvt5OY614Lxl5rArG1R8XBxV1sYWXGWSmaqyiNDnZfC/1xw2nGGqd9Al2mgc8engSs1EScROZAN9fWSKPiugmBIQACwLduxqL2a2rsTfU+FvmWlJSouGdOT688iKFDVA2DO5NFTq5YnoSmdSRRrUK9bjrj7yNsxGDHdCLWPHTHMwTT3CyHbo2rWy44coMZKSHfk/pqZRJ54oM5LblnROd7aCI4LoELHQiiTyz6K5mnk51F15ZWYnU1FTzCCWSCAEh0CIJbN6iBQq7+HyR6vfoTFk+PrCRxzOyn9OnLz/34ZrfUcq8MN1+Nd2CW25XXl7e7esvvHj4kRocpImjeW2s+D0Z0/0H6bhBGalZWanh8l9X4EC5msBHfni6//G4aLx+l4KJp/A1qINDUHLQj/99XRO4aZhwQjJaU0VIaS2bgMfjQXp6OlwulylAiEFtimEQIYSAEOBKYOkyDTfd7sfmHaQBOdEmHGfBg3+3onVrrhoBJQc0jD7Rg5owYzqozT8fsmHiZMZ3CkFFEvCv263hw488+GGVF21aWTDl1CR0o0qQ3JtKB/jgk1WoPjTvMpkeJlx/VQrGjub9VIH7uDS3/GYzqHnfkjf3aMr+hYAQaPEEkpOBNHoErWJzVZnk9DTo5s3lBOrz//l1jWmlwxuv+cWgNulgOp0WnH2WM/AyqYj1Fmt3kQ9/e6QK4U+Basghed8/qtGtix2dOsrNXb2hyhcahQD/W9dGwSIbFQJCQAj8PIHt2zWcfZEfq36sjZzz02P29z7TMHW6n3Ia//z3zbrGyh+MIwHXbTCr1CJXIhL4aqE7wpgO6qjKjn+5QL9IT3Ad+SsEmpKAGNRNSVv2JQSEQEIRePoZDW6djGRrN2qY/7WxUWp2CMnkcTeS3mpX3njerbpaw8cfu/H8Cy588YUHXq+Rtrz1TATpd+8xvjPdXWS8LBF0Fx14EZCQD17jJdIKASFgIgI/bTQWZgMZ1eNO5Gl8Dhlihf8lP2x1zGplvgwZxlOn4Ejt3OHHb66rwp7ikBHdq8CKfzyaiqws3ropHZct82DtOiqCQrqMPdGBrEzeOrlilE6voZhxaULALATEQ22WkRA5hIAQYEegYwdjkTt35mvInHySBe1aW+GFFT6aaemnl3qvWaz41RW8Lxt331MdYUyrEfxpkx+PPFpjPJgMlng8Gm65tYpuFmrw5NNu/PU+F86/oCIwQZGB+IYitm5t/Dtqk2O8zHCDskAINBIB3mfGRoIimxUCQkAIxEOgfZ7xWr16Gi8z+xInZVmb84oVXdqr0A/yVtMrmSa8zX7EhoED+Box+6ma4Ko1+mECX8znW55bHU+vve7G/IWRaVnKK4A//LEGytjm2vr1MU7T2L+vPGTnOq6JKLcY1Ik4qqKTEBACTULgI5qAaNQ++NB4mdF3zNT/xZd+bNsV0qGG5n+9+ArvyZaeGDazyiLh94f0NdNYxCPLJ5/oBPPTF/fu17BmdaShHc/2zLLOcSMcGKaTI3xwfxvGHMc/v7ZZOIscR09ADOqjZyhbEAJCoIUSKN5vrPj6H42XmX1JYaGGO+5VxmWkN/rrb0ET+fgaZ3m5VnTuFKlTcCxGDLVBVVLk2or3Gd8M7N2n75XnoGuguuWlyWjXJjQ2Ksf2FZekUOGkUB8HXUTGxCZwxAa1h6a2FxUVmaZCTWIPk2gnBISAGQm0yjaWqqDAeJnZl/z7RWWA6Rsrz/7b7NLHlu/2W5ORVKceSHYWFQq5jhKKc276wxXQyM44MqK8QsPv/1yJ8BuGfVR46A/3VKK0nO+NAudDTWTXJ1Avg3rx4sWYPn068vLy4ExyIj8/P1ACvEuXLhg/fjzeeust/b1IrxAQAkIgAQlMv8DYijnrDONlZkeh8msbtdJy42VG3zFVv9+KA/scqCi3orrKgvJyG0r2OmGx8B0vxbdzB2P5c3P5Fj/5Yr4LJaXRx5w6Dud9LnmoTfXbauHCxH3fOmfOHEybNg1jx47FTTfdhLZt2yGbbuurqRZoSUkJpepZhiuuuAJz587Fq6++2sKxivpCQAi0BAKXzbDig4/9WL428oJ//a8s6N7N2MAxO5uRwy348CulU7QOXdqbXfrY8t10gxcVbuVLCvmTqsgu+9MfvXjmBeMJcLG32vxLTzvNgbU/RhuYue0s6NMnpGvzS1o/CfYUG3uhi2Isq99eZG0hcPQE4jaor7vuOjz00EO49tprDfd62223YdSoUVi/fj39gPsYricLhIAQEAKJQMBB9tec1614400/vl4IemIHnHu2BWNGRxuinPQ9f6oV9z7iPVR+PFwXDbfPCv/MSStg924Nm4r0Zf7qOw2aprH1VO8ziKEuJ0+um+zsZKYRLRadm7rDI2hsax9eRd4IgaYiENdt6549e1BYWIgZM2bElKuAggYnTJiAzz77LOZ6slAICAEhkCgEHOSWmH6RFU8/YcXD91vZG9NqXDIyLHjzRRtaJasM1MpTrcFu8eOuG+lmYSzf8AFrjCtejEUsDtUPPtRPYVJVDaxapb+Mg2KuKsCnI76f+tzVfG/uOLAXGetHIK5zSG5uLnr16oUlS5bE3HpZWVkg9KN9e+bPBGNqKQuFgBAQAolPYMhQK779xoHX/mXBc49asHS+HZddzteYViOWm2tBxxz9sRvenwJcGMdRx4pt37qNryvXSmNSWWKFh+ru0AOEwMvjAiqoTy2TJgTMQiDukA8VHz116lTMnDkTU6ZMQbt27ZCTk3M4hnr58uWYPXs2eTYyMGnSJLPoJ3IIASEgBITAERJwUjGX40fzNqLDVVd5pj2VXvK6q6LqIWNMeeGrD/I1OpWOlCeAsm6Faxt6365tSNdQL493PXpQYSEfGdUH1XGonpaoVqtPAZWMlyYEzEIgboP65ptvRt++faFiqR9++OEo+ZUhfeWVV+LGG29Eenp61HLpEAJCQAgIAV4EFlHlvdlP+VFVpWHyqTbMvIK3cb17p4ZyFU9MBdWVWa2MavW/nV4/7awt7MI1F/Vxo2z4ZF50jnAV5jJgQNyXetMdoConeqhF3hgUFfG+CQrpJe8SgUC9fmWnn3461Ku8vBzbt23HzsKdAeNZpdHr0KEDTXpgOushEUZSdBACQkAINCCB22d58Pr7IWNm6Xofnn3Oh68XONgWQCk/lH5NmWWOgLczpJ9Cx9WYVrL/6pfJWLykEmXl6lOozZzhROvWfD25alKlUSstM1oi/UKg6QnUy6AOiqe80SqmunWb1oGwj6S6WfKDK8pfISAEhIAQYEdg9Q++CGM6qMDug8AsSjv3wCM808vt3GFsnCkdPR4fHA6eXvj8fCteeDYNL7zgwpp1fuRkW3DGGXZMPIV3ee4BA2g83tQvqz5gAN8bheBvSv4mDoF6GdSqsMsTTzyBefPmQWX+UM1Kz5M6duyI7t274+qrr8b555+fOHREEyEgBIRACyTwwP3Gj9I//J+GB5gy6dk3tgFmt8debna1lVF9220pZhezXvKdeKIdw6ks/NLlkeEsgwdacdIEnjd29QIgK7MhELdBLYVd2IypCCoEhIAQOCoC23caf90VadcYr2jCJV26WZFKV70qnTRsXdrwzvJhQtwNIpIKw3nowRS89pqbwo28gSwfo0fbcdGFTtjtkTHVDbJD2YgQOEICFkpkH/sZ2KENKy/0rFmzYhZ22bRpU6Cwy4IFCxqtsItKa1RZWRkoeX6EOsvXhIAQEAJCIAaBaRd5sWSFykEd3Wxk4GxYzdczuHKZFzMucdOkxFBTRvY77yejY2feHuqQRvJOCCQ+AY/HE5jH5zJKb9PECOLyUB9JYReplNjEIym7EwJCQAg0EIFJk6z4ZoXKgRHpb1GfevbQM7MbaMdNsJnBx9jx8f9sePtlN7Zt8aNPfzvOvdiOLIo5TpSm0gNynmCZKOMgerQsAnHdjkthl5Z1UIi2QkAItGwCZ5xGlwaaH6NSy6loavXy0XsfrPg18+IuamTz8i245uYk3PdkCmZe40gYY/rrBR6cfmYFRp9YgbHjy/GHP1bRRMvImyKlvzQhIAQankBcHmq128Yu7KImOi5btiwuDf1+4wkzcW1AVhICQkAICAFDAm0onvipB6y46iaVmzm02iXnWXDmGYnjyQ1pxv/d4kVuzLotVNnFQzEt//vSh927q/DsM2nsFfR6NWzc6A88M+lBBV0cDjkO2Q9qgikQt0Hd2IVdVCi3z8d4tkuCHRiijhAQAi2bwJTJFiwZZsPHn6jCLsCY0RYMHJAYRkxxMWUqecCHzVuBQQOA66+3U5Vf3uN934NUsUanrf3Rj/XrfOjTl2c6QKXSiuVe3Hl3DYr31Xrb27Sy4M4/JmH4cL6x/DpDJV3MCcQ9KTFcz+Ys7CKTEsNHQt4LASEgBIRAfQgsWODHxb8iT6cWujmwWzV89p4VBd3jioKsz+6abF0V4qG80nrtisscuHwmz8Jre/f6cf6FlVFl1R1kS7/5ahry8viOmd5YSV/8BMw2KfGIjkRV2KX/gP6YNGkSRo8ejXbt2qGmpiZ+CrKmEBACQkAICIFmIPB/V0Ua00oEr9+Ciy4Ji21pBrmOdpfOGPVb2lN+aq7t3XfdUca00oUSPODtt/W98lx1Fbl5E6jXr2zFihX46z1/pUpMLwTKj5eVleGss85C27ZtAxUTJ0+ejO3bt/MmItILASEgBIRAQhJYv94Pty/kmQ5XcncJAjmOw/s4vZ90kn4EpzK0TzmFb2jE0u+NQ0FXrDBexmnsRNbEIKD/C9TR7cMPPwwYz5mZmThw4ADdGb6NgoICrFy5Enf88Q561OTBM888g7PPPhtLvlkCh5PvD1hHfekSAkJACAgB5gRqqmJnvFDp5mw2fYPb7KrfeFMyNm2pwsrVIU+7Cov4x0MprAugJCcZj4cjyeyjIvK1JAJxG9TXXXcdbrnlFtxxxx1Yv349LrzwQrz//vtYt27d4SIuM2fORLdu3WgSy8c444wzWhJH0VUICAEhIARMTmDQECusFh/8YfHTQZHTHXyNaaWDm6IfavZYUbmf9CBd/OS8tVOawwryvHNu48bZsGSpvid6PJUllyYEzEIgrpCPvXv3YsOGDfjtb38LJz0/GjRoEKZPn46hQ4ceNqaVQp06dQrEVSuDW5oQEAJCQAjwJvC/zzWcO82PyWf68dgT/ogUehw1U8VOCrLVzL26nmoNo/roG21c9Hz2MQ+WridDmoxoj8cGn98GF8WG33K9m+Y41dWXi1bAqVOcoAfjUS0tHTj99BiB41HfkA4h0LgE4jKoW7dujc6dO2PVqlWHpbnooovw61//+vBn9cbr9QZCQFRMtTQhIASEgBDgS+B3N/px2W/8+O4HDWs3arj/CQ3Dx/joPM9XpwOUdm1PiR/pcMNBZWvI7IST/qrPq9eGQiU4avj5p/o3BAcpNfXKZfrLOOj540aSPckHR7IfFgtV76SXI8kPW4oP639ifDBygC8y1otAXAa1lSpmqRAPFdLx8MMPk5fCjy5duuCXv/zl4Z0tXLgQZ555JuUrrYKanChNCAgBISAEeBJYQWXH534U7dXcdxBUPISv4ek6lIxKXfhSyJhOI2M6OVD/kUImyG5TMdRcW3gBnro6qPAPrm3p9x5YKYV2WraGrFx/4JWWQ6XVqW/pckr1IU0ImIRAXAa1klXFTv/mN7/B008/TRVpo782a9YsLF26FG+++SblhcwziXoihhAQAkJACNSXwDPPGxuWn35pvKy++2nq9fM7WtAxR3+S2/ABFF9NISFc2/BR0ddlpYua0zf4GL5FXXTMjcNDZNFX+fByeSMEmpJA3IdjamoqlNGsUufptWeffTaQMu/kk0/WWyx9QkAICAEhwIRArLAOxk7cAP27/u6As47dnEmhuLf9mXc8bk21/o0OVeyGh3G65mNHGGcMO24E7zFjcjoQMeMkELdBHdxecrJ+taU+ffrAaFnwu/JXCAgBISAEzE/gkovrWJxhIo8ZabwsbDXTvh01xo635ibjwrNtGDvcisum2fHORyno0bvel0NT6bhiub5BraI9Vi3nG/NR0M2GrJTosUlPsqJXD76ed1MdPCJMgxA46pwzs2fPxrvvvosPPvigQQSSjQgBISAEhEDzEhh9vAWjh1uwcGmkkZZCeX8ffTDauGleaeu/94JeVvz+r4mVxDgtzZhDWjrfm6AvvvBg2xYLbHYr7Mm1x6PXZcFBjwXz5nkwhbKASBMCZiBw1GfG4uJirFmzxgy6iAxCQAgIASHQQARee9GKu2+1oGsHIK8NMO0sC1YtsSElpYF2IJtpUAIjRul7a1Ope+Cwo77UN6is9dnYunW1k2B9XgtcFdbAy0fGtGpr1vL1vNeHgazLgwDfXxkPviKlEBACQoAlgRrKiLFlK3CwrPZVvBfYtTvSY81SMRJ6+fd+/OYqD35xhhuzbvBg00a+mUuCY7B9q75xWUXde3bxHbdsg0mkSu+cbL6e9+C4yd/EISAGdeKMpWgiBISAEGgwApfO9OP51zUcLKcKfDSp7fNFGqb8wo89xQ22i2bZ0Gef+HD+dC8+/ErDyk3AnI81nH421VBYwduoXrXK2Gje9BNf3SaeQpNIdaI6HBSwOmmSzoJmOapkp0IAVFLpKNu4ceMCJcmPcjPydSEgBISAEDAJgUWLNXxDuajrtkryWv9zNl/jTNM0/OGPVHq8jmIu6rj7T7yLhNTESMnsdkWPZR0Epv2Yl2fF3+9JRlZYtcTMDOCvf05Gx45HbcKYVm8RjB+Bo56UOGbMGKiXNCEgBISAEEgMAmvXGRtga9by1XHnDmBvhb78K36qLezCNRe1U2WXM0iP51TJqBm3Y4914D9v2ylmmm566NDs189Osfy8dWI8HCK6AYGjNqgNtivdQkAICAEhwJRAXq4yVvSNas51u9LJs2nUUuhqyNWYVjq1yrJgX6X+mHXqyt/4XEvG9MIFPtBDhsBr+HDj/NRGYyz9QqAxCYhB3Zh0ZdtCQAgIAYYETjnZgjbZgCo1HtHILrt8Bl/jLIcmuA3pAazYGKFV4MPEcXz1UgrEKpteRhNLObfHH6/BK2+EYlpen+PB+ef4cMP1+nUxOOsqsvMlIAFIfMdOJBcCQkAINAqBJErR/NbLVnTvFNp8KtkuT/zdisGDeRueRQaTKncW6nt3QwTM/c5DaeWMWlkJX91WrvRGGNNBHd96x4OlS0NGdrBf/gqB5iIgHurmIi/7FQJCQAiYmEBBdwu+/MSGTZs1VFUBffpYoDIrcG67Ke1fkYG3dtk6FUqgwWIxNkzNrPuQoRZs+yzacFbZqfsO0s9RbWZ9grItWmQ8WXTRIh8k9CNISv42NwHxUDf3CMj+hYAQEAImJqAM64ED+BvTCnFxUd38HiHwyhSNFTYRWtOc766+0YksneKPV13hQJu2PG8SFGlrDCuF6b2POQ8gkeqoCTD3Nxy1/rIBISAEhIAQaCEEOgTSrOkXQFEmp80Ww3ozOaMOna2Y898UPPWwG6tX+qHixc+72I4pZ/O+zA8eTN71l/VDO4Yw9ryb/HAS8Y6AAO9f2hEoLF8RAkJACAiBlklAeWqdZDO7dRzVrdP4M8nvaMHdD+q4qRmrtnE14KLiQkl1MrS4qW8DLTvhRMbKiegJRUAM6oQaTlFGCAgBISAEjAgUFWm6xrRav4TixDnHUBvpzL1/5zY/3G4bvAc02B21d0JejxV+zYIdW3XujLgrLPKzJSAGNduhE8GFgBAQAkKgoQjwjTJuKALm3E5VVe1ES2VAK8M6vAWXhffJeyHQXAT4Bow1FzHZrxAQAkJACLAkkJdnQc8O+qKPG2Vhm+FDX6PE6E1ONr7VSUpJDB1Fi8QgIAZ1YoyjaCEEhIAQEAJxEDjzTH0D7Zxz5HIYB74mX6VtrvG45MZY1uSCyg5bPAHjI7XFoxEAQkAICAEhkEgEfD4Nz74QnatZ6fjkU/rZPzjpv2ePhjt+78FZp7lx2SUefPIRf51OPdsGp849kJ36Tj9XolY5HZ+JLqsY1Ik+wqKfEBACQkAIBAgUFgIHq/VhrNnCOw/17l0aTj3Vg5fnalhFuny1TMNVN/rwz8eNC6PokzBXr0oH+PAjTmQ6Q3KlO4AHH3CiS3cxYUJU5F1zE7DQrGb92/Xmlsxg/6qKVWVlJVJTUw3WkG4hIASEgBAQAtEEDh70Y9jx+gammu62YW2Y1Rb9dVP3zLrRgzkfRV/ObeTJXTLfgVatddy8ptYoUriqSg0rlvqgUWKPISNsSEvnrU+kdvLpSAh4PB6kp6fD5XIdydcb/DvyvKTBkcoGhYAQEAJCwIwEysuMjTAVHKEqJVqtxuuYUaegTN8tjTam1TKKcsHKFX6MPykyQ0bwexz+ut0aXnnWiy8+9VJqQ2DcyRpmXGVHrAmLHPQSGROLgBjUiTWeoo0QEAJCQAgYECBnlmFLIXuTqzGtlLLHiH7IzOJ5k6D0Ujc5V13swpI1oZzTq/7lwcL5Xjz3VjLsKphamhAwAYEYP0ETSCciCAEhIASEgBBoIAI5rSw4frC+AXb2qfr9DbTrRt+M0xoyOMN3ZoGGVjn63uvw9cz6ft6HvghjOijn9z9q+Phd/pMug/rIX/4ExKDmP4aigRAQAkJACMRJ4MFH7OjVMXLlYwdacPsdvB/Y+ikswgZlVIeMZ2VMJ8GHHVtCfZGam//TyqX6NwpK8pXLxKA2/wi2HAl5n0FazjiJpkJACAgBIdAABHJzLfjgIwcWLfCjcCfQo6cFw0fy9y116kiluPf7Aya1H1SkhlhZyaBWf9t34ut9z84xlj0r23hZAxwqsgkhUC8C/M8i9VJXVhYCQkAICIGWTsBGqS9OONGGaRfbEsKYVuP5f7+u9Y+pi7qdDGnbIWN6zBArevTmOyFxMuWhdujYzUqj084Rn6Aae2nmICAGtTnGQaQQAkJACAgBIXDEBI4/0Y777nGi9aFy3OriPnmsFfc/nXTE2zTDFzt1seIByjmdFmY7p5I1fd/fnejWQ0wYM4yRyFBLQPJQy5EgBISAEBACQiBBCGzb4sOiL/3Ipzjx0ePscOi5dxnqWlGu4fsllIeawsGHjrIhM1PHbc1QLxH5yAlIHuojZyffFAJCQAgIASEgBHQIqBpt993pxktzQhP1Orf24onnk9h7cpUx/cT9bnw+z0+BLJSHerwP18xyIotxOkCdIZQu5gTEQ818AEV8ISAEhIAQEAJvveTBXX/zRIHoRKkC3/8qGSpunGPzeDRcdEYN1m2PzFTSu4MFr32QDKeTp14cx8JsMpvNQy0BSGY7QkQeISAEhIAQaFQCs5/xo+8xPnTp78PgY3347/uRxlqj7ryRNv7sbP2S6jsOaFhNlRK5NpVruq4xrXT5sVDDf+fo68xVV5GbNwExqHmPn0gvBISAEBAC9SBwx11+/OUhDZXVlLGZ7OiSMlD4gB8vv8rX6FTqF+43vilY9i1f3davNpZ93SrjZfU4JGRVIdAgBMSgbhCMshEhIASEgBAwOwEPRUS88Ka+4XnH3/T7za5TUD5PION08FPor9Jqa51widBS879r3dY4pKNNWzFhzD+CLUdCORpbzliLpkJACAiBFk1g+QoyLw3sZi/N5fOF5vOx4+ShMi56/lrVn3QolR47pUjggcPoP/UooW6jvv6D63bKZyHQfATEoG4+9rJnISAEhIAQaEIC9rBcxnq7tTK+ItotFrionIvyVCvD2kd/a8iY9tJrBONKkA+oiZakW1SjvkceiJ6EGbWedAiBJiLA+PTRRIRkN0JACAgBIZAQBLKzY6uh5wiN/Q3zLE1LVs53CxnUNjKk7QHj2k/GtGq2n7mRMI8W0ZLsKdbxTh9arXif8bLoLUmPEGhcAmJQNy5f2boQEAJCQAgIgUYn0DnfeBc5OXwv9e3a6XinD6nato3xMmMaskQINA4Bvr+yxuEhWxUCQkAICIEEJdAmhgFmoash55CP886netw6rUsbYPAQvobnX+5LIj97tCda9d11r1NHY+kSAs1DQAzq5uEuexUCQkAICAETEbDytTkDFC++1Irpv4hUokMO8K9n7WyLuijFevWx4c47HHDa/BTQooJaNDjo/W232jFwMONYFhMd+yJKwxCQSokNw1G2IgSEgBAQAiYnsI3Sx50wWS8XRq3gW1fbWHuplRZbtvixaqWGVq2AUcdZ4XBEGtkmH6KY4q1c7oGfhm/oMY6Y68nClkHAbJUS5fauZRx3oqUQEAJCoMUT6NDegpQkoNoVjaJ7J94hH0GNunWzolu34KfE+jt4qBjSiTWiiaWNhHwk1niKNkJACAgBIWBAQKXNu/MWHY8tdd39B7kcGmCTbiEgBOIgIB7qOCDJKkJACAgBIZAYBC6aZkWrHA2P/VPDzt0aenW34KbrLBg1UsfQTgyVRQshIASagIDEUDcBZNmFEBACQkAICAEhIASEQMMRMFsMtTzjarixlS0JASEgBISAEBACDUzg4EENt8/yYMQIN4YPd+OWmzwoORCdSq+BdyubEwL1IiAe6nrhkpWFgBAQAkJACJiTwJ5i4NHH/Fi2XEPr1hZcepEFkyfxDmVxuzWcfqoHG3dFMu+WC3zwkQPJybz1i9RKPtWHgHio60NL1hUCQkAICAEhIAR+lsDu3cCEU314+W0N6zYDC77T8Mvr/Xj8SeM0gT+7UROs8N5cf5QxrcTasgd45y3eupkAr4jQgASOOOTD4/agqKgILpdO/qEGFFA2JQSEgBAQAkKgIQls2qTh93f4cclMP/7yNz+KyDjj3u59wI/yqmgt7n9Cw/790f1cetauNTaa164xXsZFP5EzcQjUy6BevHgxpk+fjry8PDiTnMjPz0dqaiq6dOmC8ePH46233kocMqKJEBACQkAIJByBhYs0nHSWHy/N0fDVNxpmv6ThxMk+bNjAOyZ3yVJ9+TXqXr5CfxmHwc3NNQ7pyM0zXsZBN5ExsQjEHUM9Z84cTJs2DWPHjsWpp56Ktm3bITs7C9XV1SgpKcGyZcsCBvVpp52GV199tdEoWSwWVFZWBgz5RtuJbFgICAEhUVTs1gAAKuFJREFUIAQSksDwMT4UH4hWbcQgC95+vV4+puiNNGPPBLop2LhdX4C3X7RixHCexmdxsYYJJ3tQ5Y3ULdkG/O8TB/KpWI+0lknAbDHUceehvu666/DQQw/h2muvNRy52267DaNGjcL69evRp08fw/VkgRAQAkJACAiBpiawc6ema0wrOb5bpQXKWluZ2tSZKcoLrWdcaujeralJN9z+2rWz4N/P2vHba70oKq3dbrtMmnz5sF2M6YbDLFtqAAJxGdR79uxBYWEhZsyYEXOXBQUFmDBhAj777DMxqGOSkoVCQAgIASHQ1ARiZYSwkSHN1ZhWHEsPqHji4N1A0LDWqMeP1T9YcOJ4cukybceMsGLBQgd++lGDCmHp1dsCmy2oI1OlROyEIxD89cVULDc3F7169cKSJUtirldWVhYI/Wjfvn3M9WShEBACQkAICIGmJtCmDTCoj74hdtoE/f6mlvFI95eeBtjJeFYGtOXQX1vgLyhEkrduionVakGfvlb07WcVY/pIDxL5XqMSiMtDrSS44oorMHXqVMycORNTpkxBu3btkJOTcziGevny5Zg9ezYyMjIwadKkRhVaNi4EhIAQEAJC4EgIPPmIBedcFBn60bsbcM/dcfmXjmSXTfKdHgUWrNmqPNKqhSYh2smWHjKsSURo1J3U1Gj4fpk/4KEeOsyaEDcJjQpMNt7kBOKelKgke//996FiqTdt2hQlqDKkr7zyStx4441oTA+1TEqMQi8dQkAICAEhUA8CKtvrR59o2LFDo6evFpxM3mkb34iIgObn/8KNZT/qQ3jvDTsGDOR7w/Dl5z5cd6MPZYey9GY4gQfus+GUicwHTX+4pDdOAmablFgvgzqoY3l5ObZv246dhTuRnp4eSKPXoUMHqliUHFyl0f6KQd1oaGXDQkAICAEhwJTAuBPc2G6Qb/qZx2yYcBJP47OQJpJOmOyBp07KaeV5//QDO7p25XujwPRQM43YZjOoj+hIVN5oFVM9ePBgDB8+HGoyYlMY06YZRRFECAgBISAEhICJCPTrpx8nrXr79DmiS70ptHt3ri/KmFaCeSmqZe4cnylkFCGEgCJQr1+ZFHaRg0YICAEhIASEgPkIXH+DDUk6V/Tp51jQvoO+sW0+LaIl2r8vFA9ed+kBA4983fXksxBoCgJxT0oML+xy00036RZ2URMX586d26iFXZoCiuxDCAgBISAEhAAnAj17W/Hko3bMus2HAxUa7GRcn3yiFXfezTPUI8h+8FBS5C19T3RgWXBF+SsEmplA3DHUHTt2xKxZs2IWdlGTFVVhlwULFjRaHmqJoW7mI0Z2LwSEgBAQAqYjsH27hlOopHr1oYl7QQF/e7kFN9+o47oOrmDyv16K7ThtigcbCiMF7Z5LE0s/dcDh4Ot9j9RIPtWXAMsY6iMp7FJfMLK+EBACQkAICAEhcGQE7ntQizKm1ZYef45SBO49sm2a4VtlVB2xSEf+Igr3KCkxg4QigxCoJRBXyEd4YZeJEycasgsWdrngggsM1zFaUFxcTD8O+XUY8ZF+ISAEhIAQEAJGBL5Zph9rrCoL/vCDhpNP4unJfYcmHpa7o7Wu8gJz3vDh6t/GZcZEb0B6hEADE4j7SGzswi4vvvhi3LHXXi/9kqQJASEgBISAEBACAQLVNcYgmiCjrfHOj3LJrl36Nwpqs7sKjZcd5W7l60Kg3gTiNqhvvvlm9O3bN1DY5eGHH47aUXhhF5Wbur5NTXRUr59rKobabo9b7J/bnCwXAkJACAgBIZDQBNw6Hl4uCvemyZaA/qTEXoFlXDQROROdQNyTEsNBSGGXcBryXggIASEgBIRA8xLoe4wPldX6Mjz/uBUnUTVIjk2VHJ8y0YNt+yKl75ADfEyTEtPSeOoVqY18OhICLCcl1lVUeaP7D+iPSZMmYfTo0cjKykJ1tcEvue6X5bMQEAJCQAgIASHQoAT8dSoJNujGm3FjyckWvPm2A6ePtyCFMgAm02vKWAvmvCPGdDMOi+xah0CDxE5cffXVUKXH9UJBdPYpXUJACAgBISAEhEADEvDFMKgrK/+/vTsBj6LKFjh+OiEBBJUtEPZNAhJlRhTBBWSRNTgII1EBHz6QEdRBfC7jc1RwBnVER+c56CDKiMoyDIvOU4dFUFAkKMgywrAoiCwSiBDWICSkXp3iddOdpEM16U5Xdf/r+6Crq6pvnfrdTnL69q17w3iiKBSVkuKRl19JisKZOSUC9gVsJdSHDh2S8ePHBy11/fr1sn37dl8f6KFDh8rll18e9Hh2IIAAAggggED4BBJK6fmQ6O65XSykZZ+clsWLCkVHLenaPUG6douBiwpf9VOSAwRsJdSG+Q6eOXOm/PDDD5KWliba5cN/ycnJEU26ly5dam3OyMjw3806AggggAACCERQoHF9kS3flXyCOuYkKG5exj6eL+/MOzuix4z/PS23ZhTKs8/Tau3meo212G3flKhJ88iRI2Xjxo0ydepU6dChg88iMzOz3Lp8MFOij50VBBBAAAEELIG33imUJ549m3R6WerXFlm+JFHc2kq9csVpGXRXyaN8TH01UTp1pqXaW9fx9ujamxJTUlJk7ty5osPn9erVS8aNGyf5p/Ljrf64XgQQQAABBBwn8B9DEuSOWwL7faTWEpk2JcG1ybQif/Jx8M7hn3xccqLtuMohoLgQ0AEeQ1qGDx8uq1atkkWLFsn1Ha+XTZs2hfR6DkYAAQQQQACB8AqYUzTIlW09ckGl/y/XfN6mtUdSagcm2eE9a+RLW7umeKu796xrv/Ku8YhA9AVCTqg15BYtWsiyZcukT58+0r59e8nKyor+lRABAggggAACcSqwdJkhYx4rlDzvjIlmHrroU0Puujt4C68bqA4fCB7/0UPB97nh2ogxtgTOK6FWgqSkJBk7dqwsWLBAWrVqJY0aNYotGa4GAQQQQAABlwhMnFRyS+7KdYZs3lLyPjdcWq0aIhVKmCmxghRKjWpuuAJijBeB806ovUAbNmyQ5ORkeeCBB7ybeEQAAQQQQACBchTYuSd40rxzVzkGEuZT9R+YKEliSCUpsBJrTaR1Pcl8zOjPDYlh5qa4MgiUOaHev3+/NfJHGWLgpQgggAACCCBQBoFLmgbvK31J8zIUHOWX5h7xyClJEL26ZDOxTjYTaV3PN7cdzwt+zVEOm9PHoUCZE+o4NOOSEUAAAQQQcJTAg/d7RG9MLLr0NqfsblZKsl30eKc937vXMDt8JMhPkignzUf9p+sF5uPeH4K3yjvtOogn9gVIqGO/jrlCBBBAAIEYF9ARPqa9liBNG5y50GRzzpM7Mz3y55fc/We+1aVn4jfMdmlNrPWfruvi3XfmivkfgegK2JopsbQQO3fuLDVr1iztEPYhgAACCCCAQIQFOl7vkWWLEiW/wBw4oMx/3SMcrM3i+/VPkMmvnZbt+wJf0NgcY/uXme7+sBB4RTxzu4DtmRKdcqHMlOiUmiAOBBBAAAEEIi+Qe9CQp39XIB8tNcQwe3l06+SR3z5ZQWqllNDHJfLhcAaHCLh2pkSH+BEGAggggAACCMSRwNZvRT74NEFyTyXKofxE+XB5gmz5Jo4AuFRXCNBC7YpqIkgEEEAAAQTiT2DffpF2Xcwpxovef2g2Tq9YmCANGtBKHX/vijNXTAt1vNY8140AAggggAACIQk8PtacDbFoMq0lmNv++8mSdoRUPAcjEDYBevSHjZKCEEAAAQQQQCCcAt9sD540b9sRfF84Y6AsBOwIkFDbUeIYBBBAAAEEXCCQny+ydashP/7ogmBthNikYfAuHY3qB99no2gOQSCsAiTUYeWkMAQQQAABBKIjMG1GobRud1puvLlQ2nY6LYOGFkpubnRiCddZfz/WTJqD5M1PjwuyI1wnpxwEQhAgoQ4Bi0MRQAABBBBwosDCjwx5bLwhJ0+djW75KkPuHGH2QXbx0tBsoZ7ycoJU8BtXOzFRZNIfE6R5cxJqF1dtzIXOKB8xV6VcEAIIIIBAvAn0zyyUrzaU3Kd4/pwESW/t/uRzx/eGFJqfD9w8lXq8vS8jeb2M8hFJXcpGAAEEEEAgDgX2ZJecTCvFnh9iA6RJYw/JdGxUZUxeBV0+YrJauSgEEEAAgXgSaHVJ8BbolmnxJMG1IhAdARLq6LhzVgQQQAABBMIm8NADHvGU8Bf95l4eadwoeLIdtgAoCIE4Fyjhxy/ORbh8BBBAAAEEXCbQ5nKPzJmaIJelmYm1mT9fVEXk3v/0yIsT+DPvsqokXJcKcFOiSyuOsBFAAAEEEIgXgYWLDJlv/tObEnve6JGMPrS6x0vdB7tOp92USEIdrKbYjgACCCCAAAJRF7hvTKH8r5lM+y+9Ontk8qu0vvubxNu60xJq3o3x9g7kehFAAAEEEHCJwCdLjWLJtIa+wNyurdYsCDhFgITaKTVBHAgggAACCCAQIPCHF4JPTPPsH4PvCyiEJwiUgwAJdTkgcwoEEEAAAQQQCF1gd3bw1+zdH3wfexAobwES6vIW53wIIIAAAgggYEugTq3gh9WqHnwfexAobwES6vIW53wIIIAAAgggYEvgN/8VPE156P7g+2wVzkEIhFGAd2MYMSkKAQQQQAABBMIn0LOHOURe1+JD5HW7ziP9+xXfHr4zUxICoQkwbF5oXhyNAAIIIIAAAuUskLXSkOkzDTHMgT0G3+aRa68lmS7nKnDc6Zw2bF4FxwkREAIIIIAAAggg4CfQ/mqRGtXESqjTWvrtYBUBhwiQUDukIggDAQQQQAABBIoLfLW6UEaPLpC9h87sq3ORyP/8qYJc3YFeq8W12BItAbp8REue8yKAAAIIIIBAqQI5OYZ06ZYveQWBh1VOFFm8MEnq1qPrR6BM/DxzWpcPPt7Fz3uPK0UAAQQQQMBVAvNmny6WTOsFnDgtMtfcx4KAUwRIqJ1SE8SBAAIIIIAAAgEC+/YFn148e2/wfQGF8ASBchAgoS4HZE6BAAIIIIAAAqELtG4dPE1pnR58X+hn4hUIlE2Ad2PZ/Hg1AggggAACCERI4Bf9E6RZneKFN6wpMmAgKUxxGbZES4B3Y7TkOS8CCCCAAAIInEPAI8cLE+W0eEQ7eOg/Xc8zEswh9Lgh8Rx47C5HARLqcsTmVAgggAACCCBgX2Duu4WyJ0cT6QQzkdbEOtFa33fQI7NmF9oviCMRiLAACXWEgSkeAQQQQAABBM5PYOO/g7+utH3BX8UeBCIjQEIdGVdKRQABBBBAAIEyCtRNDV5AvbrB97EHgfIWIKEub3HOhwACCCCAAAK2BAbekiDJScUPrWDO83xbJilMcRm2REuAd2O05DkvAggggAACCJQqUDtFZNabCZJS/exhtaqJzHg9QerSQn0WhbWoCzD1eNSrgAAQQAABBBBAoDQBwxzeY+tWwxrlI62FRxJoDiyNKy72OW3qcfNLExYEEEAAAQQQQMC5Ah5zhLyWLRkmz7k1RGR8xuM9gAACCCCAAAIIIIBAGQRIqMuAx0sRQAABBBBAAAEEECCh5j2AAAIIIIAAAggggEAZBEioy4DHSxFAAAEEEEAAAQQQIKHmPYAAAggggAACCCCAQBkEzjuhzj+VL9nZ2XLy5MkynJ6XIoAAAggggAACCCDgboGQEuqsrCwZMmSIpKamSnLFZHNQ9bpywQUXSOPGjaVLly4ye/Zsd2sQPQIIIIAAAggggAACIQrYnthlzpw5ctttt0mnTp2kT58+kpJSW6pVu1hOnDghubm58tVXX1kJdUZGhsyYMSPEMOwf7jEHozx+/LiVyNt/FUcigAACCCCAAAIIxIqA0yZ2sZ1QN2jQQB555BEZPXp00LrYtm2btG/fXpYvXy6tWrUKelxZdpBQl0WP1yKAAAIIIIAAAu4XcFpCbavLx759+2TPnj0ydOjQUmugefPm0rVrV/noo49KPY6dCCCAAAIIIIAAAgjEioCthLpOnTqSlpYmX3zxRanXfeTIEavrR7169Uo9jp0IIIAAAggggAACCMSKQAW7F3LXXXdJZmamDBs2THr37i21a9eW6tWr+/pQr127ViZPniwXXnih9OzZ026xHIcAAggggAACCCCAgKsFbPeh1qv84IMPZMyYMaJ9pYsumkiPGDFCHnzwQYlkCzV9qIvK8xwBBBBAAAEEEIgvAaf1oQ4pofZW1dGjR2Xn9ztl957dUrVqVWsYvfr160ulSpW8h0TskYQ6YrQUjAACCCCAAAIIuELAaQm17S4f/rraGq19qmvWqml1+6hYsaL/btYRQAABBBBAAAEEEIgbAVs3JXo1mNjFK8EjAggggAACCCCAAAJnBGx3+WBiF94yCCCAAAIIIIAAAk4QcFqXD9sJNRO7OOHtQwwIIIAAAggggAACTkuobXX5YGIX3rgIIIAAAgggEC2BPXsMeXtaobz1TqHs2mVEKwzOi0BQAVsJNRO7BPVjBwIIIIAAAghEUEAT6Wt7FMrjzxjyxLOGXNerUKb8tTCCZ6RoBEIXsD3KR6Qndnn++edlxowZtq6goKDA1nEchAACCCCAAALuFdi8xZDHzSRa/BulzfWnXjCkXTtD2lzuce/FEXlMCdjuQ61XHcmJXXJyciQ3N/ecuOnp6ZJ3PE+SkpPOeSwHIIAAAggggIB7BZ57vlBeedM/mz57LSOGeOSJx2x90X72RazFjIDT+lDbbqHWGujbt6/1LxITu6SkpIj+O9eSmJh4rkPYjwACCCCAAAIxIJB3IvhF5OUF38ceBMpb4Lw+2unELumXpUvPnj2tCV4OHTokmmSzIIAAAggggAAC4RLoeF3wLh2l7QvX+SkHAbsCthPqW2+9VZYuXeor98CBA5KZmSm1a9eWq666ynocOHCgZGdn+45hBQEEEEAAAQQQOF+BG7t5pHvH4kn1DR080rtX8e3nex5eh0BZBWz3odZW6UmTJsngwYOtcw4YMEA+/vhjGTRokPTu3VtWrlwp06dPl4YNG8qSJUskOTm5rLGV+PpKlSrJ0SNH6UNdog4bEUAAAQQQiC2BQnNAj1mzC2X+wjP3Jva8UeT2WxOEHqCxVc+hXo3T+lCfV0K9d+9eqVevnkycOFHuvfden8G2bdusLiALFiyQ7t27+7aHc4WEOpyalIUAAggggAACCLhPwGkJte0uH/7Uhw8ftp5qNxD/pXnz5la/6q+//tp/M+sIIIAAAggggAACCMSsQEgJtffGw1atWsmll15arL90/ql8WbNmjdSsWTNmwbgwBBBAAAEEEEAAAQT8BUJKqEeNGiWpqanSr18/q4+0Ptcmd12WL18ufW/qKydOnJAePXr4n4N1BBBAAAEEEEAAAQRiVsD2ONS7d++WDRs2yL/+9S9Zt26daD/q9evXS0LCmZz8D3/4g6xevVpmzpwpdevWjVkwLgwBBBBAAAEEEEAAAX8B2zcl+r/Iu66t00lJZ2Ys3Lx5szRq1EguuOAC7+6IPHJTYkRYKRQBBBBAAAEEEHCNQEzclOjV1mR68uTJkpGRIdqvOtLJtPe8PCKAAAIIIIAAAggg4BSBkPpQlxT0/v37ZePGjSXtYhsCCCCAAAIIIIAAAjEvUOaEOuaFuEAEEEAAAQQQQAABBEoRIKEuBYddCCCAAAIIIIAAAgicS8D2KB/BCurcuTPjTgfDYTsCCCCAAAIIIIBAzAuUaZSPaOh4PB6ZNGmSb7i+cMZw/PhxmTNnjjRr1iycxVJWBAUOHDgg+p6oUaNGBM9C0eEU2LZtmzRt2jQiP8PhjJOyzgjohF76u1HnIGBxh8CuXbskJSVFdFQsFucLnDx5Uo4cOSIDBgxwfrAOitAwDLn77rtFH52wlLmFurwvQhPerKysiJxWp1T/4osv5KeffopI+RQafgEdD10Tav7Yh982UiXqOPZ5eXmSmJgYqVNQbhgFcnNzRX83NmnSJIylUlQkBbZs2SINGjSQKlWqRPI0lB0mAZ0QTz8Epaenh6nE+ClGc0KnLK5roY4kXE5OjrRt29Z6Y0fyPJQdPoGnn37amrXz4YcfDl+hlBRRAW05+/bbb+Xiiy+O6HkoPDwC+gdr/vz5MmXKlPAUSCkRF+jSpYtMmDBB2rVrF/FzcYKyC+iEeSNHjpQVK1aUvTBKiJoANyVGjZ4TI4AAAggggAACCMSCAAl1LNQi14AAAggggAACCCAQNQES6qjRc2IEEEAAAQQQQACBWBAgoY6FWuQaEEAAAQQQQAABBKImQEIdNXpOjAACCCCAAAIIIBALAiTUsVCLXAMCCCCAAAIIIIBA1ARIqKNGz4kRQAABBBBAAAEEYkGAhDoWapFrQAABBBBAAAEEEIiaABO7+NEXFBTI9u3bJS0tzW8rq04W0Ml4dKbEWrVqOTlMYvMT2Lx5s/UzlpDA53k/Fseu6iyJx44dk/r16zs2RgILFNixY4fUqVNHKleuHLiDZ44U0NmZddbfpk2bOjI+grInQEJtz4mjEEAAAQQQQAABBBAoUYAmohJZ2IgAAggggAACCCCAgD0BEmp7ThyFAAIIIIAAAggggECJAiTUJbKwEQEEEEAAAQQQQAABewIk1PacOAoBBBBAAAEEEEAAgRIFSKhLZGEjAggggAACCCCAAAL2BEio7TlxFAIIIIAAAggggAACJQqQUJfIwkYEEEAAAQQQQAABBOwJkFDbc+IoBBBAAAEEEEAAAQRKFCChLpGFjQgggAACCCCAAAII2BMgobbnxFEIIIAAAggggAACCJQoQEJdhMUwjCJbeOpkgcLCQieHR2wIxIQAvxfdVY38XnR+feWfypfTp08HDZSfuaA0jt1BQm1WzfHjx2Xs2LGSnp4utWvXlkGDBknuwVzHVhqBicydO1euvPJKqVy5sqSkpMjQoUPlhx9+gMYFAnl5edK6dWt56KGHXBBt/IaoSdmzzz4rl156qVSrVk3uvPNO+fzzz+MXxOFXrsnZc889J40bN5bk5GS5/PLLZfbs2Q6POj7D27lzpzRs1FCWLFlSDGDmzJnSq1cvufDCC6Vjx46yfPnyYsewwZkCJNRmvTz11FMyZ84cmTRpkrz//vuyfft26dW7l/AJ0Zlv2gULFsgtt9wi7du3l6VLl8qLL74oq1atkn79+ol+6mdxtoB+eN20aZOzgyQ6eeSRR6wETetr0aJFkp+fLwMGDLAaIOBxnsCf//xneeyxx2TMmDHy5ZdfSrdu3SQzM1M+/vhj5wUbxxF9//330r9/f9m3b18xhRUrVsiwYcNk4MCB8sXKL+Tqq6+2kuuNGzYWO5YNDhQwk8a4XjZs2GAkJiYaH374oc9h69at2u/DWLx4sW8bK84RMBNno2XLlgEBvfvuu1admS1oAdt54iyBzz77zKhTp45htqIZDz74oLOCIxqfwP79+w3z2x9j+vTpvm0nTpwwzNZqw2xB821jxTkCHTp0MG6++WZfQAUFBUaTJk2MESNG+LaxEl2BN954w7jooosM89sD6+/VwoULAwL6+c9/bgwfPjxgm/lNrHHPPfcEbOOJMwXivoV62bJlUqlSJel+Y3ffx50WLVrIZZddJuab3beNFecImL9w5NVXXw0ISL/m1OXIkSMB23niHAHtWqV199JLL0mtWrXE4/E4JzgiCRAwP6CK+Ydfbr/9dt92/T3573//W2677TbfNlacI1CzZk05fPiwLyAz5RAzqbbq0beRlagKjB8/Xh544AHrm/CigWiXxXXr1lnftPrvMz8klXi8/zGsO0Mg7hPqb7/9VlJTUyUpOSmgRho0aFDiVzIBB/EkKgI33XSTdO3aNeDcs2bNsvoNmp/wA7bzxDkCjz/+uNUf1z9Jc050ROIvsGvXLtGfJe3+ZraOyTXXXCMjR46U7Oxs/8NYd5DA3XffLVlZWfL73/9etOvAr3/9a9H7FQYPHuygKOM7FO2KM27cOElKCsw3VOW7776zcOrWrRuApM/37t0r3GgawOLIJxUcGVU5BnX06FHRT/ZFl+rVq5NQF0Vx6PPVq1fLxIkT5eGHH7Y+HDk0zLgOS78Jeuutt2T9+vVx7eCWi9fWsoMHD0qXLl0krUWatGnTxqq/+fPnW3WoNymyOEtAGxoeffRRefLJJ61/Gp3ZZUeuuOIKZwUax9HoDfTBFu+3qzVq1Ag4RH/W9JuG3NzcEnOVgIN5ElWBuG+hNvtPS0JCcQb9OvrkyZNRrRxOfm4BTdD69u1r3byhLaAszhPQD6133XWXTJgwQRo2bOi8AImomIB2HdAbfUePHi2LlyyW1157TfSDq45O8PLLLxc7ng3RF7j//vutrnAvvPCCrF27Vn7zm99Y3yr89a9/jX5wRHBOgQoVzrRvFs1HvM9PnTp1zjI4ILoCcd9CrV+nfPLJJ8Vq4dChQ3LxxRcX284G5wisXLlSMjIy5IqfXyHz3p1n9YV3TnRE4hXQFjP94Pqzn/3MSsp0u/an1u4DmqRp66cO88XiHAHzxlGrocG/u4AOK9q2bVtrBAnnREokKqB/r/S+kmeeeUbMm30tFO2yoz9juk1HjmBxtoD+zOmidem/eJ9XrVrVfzPrDhQo3jTrwCAjGZK+iXX4mqL9k/QXkXmHdCRPTdllENC+aDpWp47T+f4H73PjTRksI/1SbencsmWL9S1Cu3btRP9t3rxZpk2bZq2XNHxUpGOi/NIF6tWrJ/oH3PtH3nu0/k4s+rvSu4/H6Anoz5h2C9Bv6/wXHUp027Zt1jcL/ttZd56AzoGhiznCTkBw+vtR9+m41CzOFoj7hFoTMv16c2XWSl9N6Q05a9assZI130ZWHCOgN5JqMt27d29r4gKd3IXFuQIzZsywEmhNor3/dGIXbTXT53pTMIuzBPT3ovbp1FEHvMtPP/1kjUetY+OyOEugXt16VkB6E6n/ojcp6rdDpfXd9T+e9egJ6IdX/RZPx3z3X/75z39aY4r7b2PdmQJx3+VDv8bs2bOnPPzIw6IzFFWpUkW0L1rnzp2tSQycWW3xHZXefKiTTGhC/Y9//CMAQ1s/vUPoBezgSdQEGjVqVOzc+iFIb74xxxMvto8N0Rfo1KmTNbKHzo74t7/9zfoGSLsOaH9OnXSCxVkCrdNby4033ij33Xef9a1Cq1atrN+NU6dOFXMcamtGWWdFTDRFBfS+La0/7bLTo0cP0Z/BN99802rc03pkcb5A3CfUWkXmYOsyZMgQKxGrWLGi9WbWWRMZJ9d5b2D9+uu9996zAtPpxosub7/9ttxxxx1FN/McAQRCFNAPq3ozqU5hrYt++Jk3b55oIwSLswT0b9U777xj3USqM8jqoh9+Ro0aZfWhdla0RBNMQD/A6jewOmKLduHR+0tef/11adasWbCXsN1BAh6db8ZB8UQ1lAMHDli/hHTIPBYEEEAAAZFjx45Z3T+0XzWL8wX0hl8dt1hH1NEGIhb3CegIYzk5OaLzYbC4R4CE2j11RaQIIIAAAggggAACDhSI+5sSHVgnhIQAAggggAACCCDgIgESahdVFqEigAACCCCAAAIIOE+AhNp5dUJECCCAAAIIIIAAAi4SIKF2UWURKgIIIIAAAggggIDzBEionVcnRIQAAggggAACCCDgIgESahdVFqEigAACCCCAAAIIOE+AhNp5dUJECCCAAAIIIIAAAi4SIKF2UWURKgIIIIAAAggggIDzBEionVcnRIQAAggggAACCCDgIgESahdVFqEigAACCCCAAAIIOE+AhNp5dUJECCCAAAIIIIAAAi4SIKF2UWURKgIIIIAAAggggIDzBEionVcnRIQAAggggAACCCDgIgESahdVFqEigAACCCCAAAIIOE+AhNp5dUJECCCAAAIIIIAAAi4SIKF2UWURKgIIIIAAAggggIDzBEionVcnRIQAAggggAACCCDgIgESahdVFqEigAACCCCAAAIIOE+AhNp5dUJECCCAAAIIIIAAAi4SIKF2UWURKgIIIIAAAggggIDzBEionVcnRIQAAggggAACCCDgIgESahdVFqEigAACCCCAAAIIOE+AhNp5dUJECCCAAAIIIIAAAi4SIKF2UWURKgIIIIAAAggggIDzBEionVcnRIQAAjEokJ+fLzt27JBjx47F4NVxSQgggEB8C5BQx3f9c/UIIOAncN9998n111/vt+X8VitXriyTJ0/2vXjWrFlSo0YNadq0qfzud7/zbWcFAQQQQCA2BCrExmVwFQgggIBzBcaPHy/XXHONvPLKK1KrVi3nBkpkCCCAAALnJUAL9Xmx8SIEEEDAvsDevXulZ8+e0qJFC6levbr9F3IkAggggIArBEioXVFNBIkAAuUpMHv2bLnqqqukTp06kpmZKdnZ2b7T55/Kl6eeekratWsnF110kVx22WXy6KOPyokTJ3zHeFe2b98u1113nRw+fFheffVVa/3o0aPe3aU+agL+4YcfyvDhwyU1NVW6d+8uM2bMCHhNabEUFhZK37595eWXXw54zcmTJ6Vz584yf/78gO2lPcnJyZFRo0ZJkyZNpF69enLrrbfK999/73vJ6tWrpVOnTvLdd99Jv379rFb4q6++2orfdxArCCCAQAwLkFDHcOVyaQggELrAmjVr5Le//a0MGzZMxowZI8uWLZPbb7/dV9CIX42Q1157TQYPHizTpk2TG264QZ577jn505/+5DvGu6L9pu+9916pVKmSdOzY0VqvWLGid3epj5qk3nnnnXL69GmZO3eudO3aVYYOHSoLFy70va60WBISEqwEWLuZ+C8fffSRZGVliSa8dha9mbJ3796yePFi0a4rWt7u3butDxz79u2zijhy5Ih8/vnn0qdPH+tDyIsvvmhd8y9+8QvZuXOnndNwDAIIIOBuAYMFAQQQQMASMJNfw/yNbmzevNknMm7cOCM5Odk4deqUkZeXZ1x55ZXGG2+84duvK2Zyatx0002+bWYCbZhJt++5mVgbZkux77mdFX2N2UpumC3NvsPvueceIy0tzXpuJ5bPPvvMuh7zQ4KvjDvuuMPo37+/7/m5Vl5//XUjMTHR+Oabb3yHmq3shtl6b9x///3WtiVLlljneemll3zHmEm3tW3q1Km+bawggAACsSrATYnu/jxE9AggEGaBRo0aScuWLX2lXnvttWIm06L9oHWfthzrYv5RkF27dsnXX38t2r0iEsPhDRo0SDwejy8WbfHVriOHDh2SatWqnTMWjb1Zs2Yyb948ueKKK8RMwuXdd9+VKVOm+Mo818qqVausriqXXHKJ79CqVavKLbfcYrVK+zaaK9rtw7vUr19fqlSpIna7uHhfxyMCCCDgRgG6fLix1ogZAQQiJtCgQYOAsrW7hi4FBQXW49q1a61+wprQNm7c2Oo/ffDgQSvBtg4I43+alPovtWvXtp5q32xdzhWLdvvQril///vfreO137Qm6BkZGdZzO//puRo2bFjsUO1L7d+PWg8oOoKJdm/RLissCCCAQKwLkFDHeg1zfQggEJKAf4tw0Rfu379fevToIdpn+M0337RuVtQWarMbSNFDw/K8aKt3bm6uVa62lNuNRW8g3Lp1q6xbt85qqf7lL39ptRzbDbBmzZriPa//a3SbjlrCggACCCAgQkLNuwABBBCwKaA33v34448yadIkGTBggHUDnnb30KQ6Ei2xK1euDIhsxYoVVmuxtgTbjSU9Pd1K+N9//31rZA9NsENZWrduLV9++WVA1w3t7rJ06VJp06ZNKEVxLAIIIBCzAiTUMVu1XBgCCIRbQIfSM2/Qs1p6dfg5HeVi9OjRYt7EaPVPDvf53n77bZkwYYLVQqyjc+joGU888YR1mlBiGTJkiJg3DEpSUpJ069YtpDBHjhwpOtKHDpun16ut82PHjpVNmzaJeYNjSGVxMAIIIBCrAiTUsVqzXBcCCIRdQPsSP/PMM9a04tqHuok5LrP2sZ44caJs3LjRulkwnCfV4fr0BkIdfk+HzHvowYdkxIgR1ilCiUVvINSxsLU8TapDWbTftg7Vt2HDBms8bI1Fx8d+7733RG96ZEEAAQQQEPHo8CVAIIAAAgjYF/CO8FG3bt2QE1S7Z9G+y9oSrC3gOu6z3gSoNxkWXezEoqORNG3aVLTLiN3xp4ueR58fOHDA2qyxsSCAAAIInBVg2LyzFqwhgAACtgT0xkW9MbC8lqIjj/ift7RYdPZGHZ1EJ2Rp27ZtmZJpPSeJtL886wgggMBZARLqsxasIYAAAhEVWL9+vTX74blOojf8hWPRmRx/9atfWaN6fPrppwFFvvDCCzJ9+vSAbUWfdOjQQf7yl78U3cxzBBBAAIEiAnT5KALCUwQQQCBSAjqxyo4dO85ZvE4sY85MKCkpKWVqFdbxsXWkEG2dTk1NDThvdna26P7SFp2YRcfaZkEAAQQQKF2AhLp0H/YigAACCCCAAAIIIFCqQPE7XEo9nJ0IIIAAAggggAACCCDgL0BC7a/BOgIIIIAAAggggAACIQqQUIcIxuEIIIAAAggggAACCPgLkFD7a7COAAIIIIAAAggggECIAiTUIYJxOAIIIIAAAggggAAC/gIk1P4arCOAAAIIIIAAAgggEKIACXWIYByOAAIIIIAAAggggIC/AAm1vwbrCCCAAAIIIIAAAgiEKEBCHSIYhyOAAAIIIIAAAggg4C9AQu2vwToCCCCAAAIIIIAAAiEK/B9wzf0ABR+L9AAAAABJRU5ErkJggg==;" vertex="1" parent="1">
          <mxGeometry x="130" y="300" width="510.26" height="413" as="geometry" />
        </mxCell>
        <mxCell id="MzykiI3sRF4YuXdm_mYT-3" value="&lt;font color=&quot;#0000ff&quot;&gt;Each epoch is carried out to a half payout face value point.&lt;br&gt;Dots get darker as more rounds are settled.&lt;/font&gt;" style="text;html=1;align=left;verticalAlign=middle;resizable=0;points=[];autosize=1;strokeColor=none;fillColor=none;" vertex="1" parent="1">
          <mxGeometry x="165" y="598" width="330" height="41" as="geometry" />
        </mxCell>
        <mxCell id="MzykiI3sRF4YuXdm_mYT-4" value="&lt;font color=&quot;#a680b8&quot;&gt;&amp;nbsp;% change from buy-in&lt;/font&gt;" style="text;html=1;align=center;verticalAlign=middle;resizable=0;points=[];autosize=1;strokeColor=none;fillColor=none;rotation=0;" vertex="1" parent="1">
          <mxGeometry x="-8" y="474" width="138" height="26" as="geometry" />
        </mxCell>
        <mxCell id="MzykiI3sRF4YuXdm_mYT-5" value="&lt;b&gt;&lt;font color=&quot;#ea6b66&quot;&gt;X-axis: parameter for half payout&lt;/font&gt;&lt;/b&gt;&lt;div style=&quot;&quot;&gt;&lt;font color=&quot;#ea6b66&quot;&gt;- for&amp;nbsp; X = 1,...,9: when player wins on&amp;nbsp;&lt;/font&gt;&lt;span style=&quot;color: rgb(234, 107, 102); background-color: initial;&quot;&gt;face value&amp;nbsp;&lt;/span&gt;&lt;span style=&quot;color: rgb(234, 107, 102); background-color: initial;&quot;&gt;X, pay half&lt;/span&gt;&lt;/div&gt;&lt;div style=&quot;&quot;&gt;&lt;font color=&quot;#ea6b66&quot;&gt;- 11:&amp;nbsp;&lt;span style=&quot;background-color: initial;&quot;&gt;when player wins on 3 PICTURES, pay half&lt;/span&gt;&lt;/font&gt;&lt;/div&gt;&lt;div style=&quot;&quot;&gt;&lt;font color=&quot;#ea6b66&quot;&gt;- 10:&amp;nbsp;&lt;span style=&quot;background-color: initial;&quot;&gt;player always gets full payout&lt;/span&gt;&lt;/font&gt;&lt;span style=&quot;background-color: initial;&quot;&gt;&lt;/span&gt;&lt;/div&gt;" style="text;html=1;align=left;verticalAlign=middle;resizable=0;points=[];autosize=1;strokeColor=none;fillColor=none;" vertex="1" parent="1">
          <mxGeometry x="144" y="689" width="331" height="70" as="geometry" />
        </mxCell>
        <mxCell id="MzykiI3sRF4YuXdm_mYT-6" value="&lt;b&gt;Summary&lt;br&gt;&lt;/b&gt;- The more you play, the more you lose in relative to buy-in.&lt;div&gt;- Only if the rule is set when player with three pictures win half (casino set as face value 6), player lose at a lower rate.&lt;/div&gt;&lt;div&gt;- long-term, its still lose. lan lan suck thumb.&lt;/div&gt;&lt;div&gt;- Rationale: given a round, if the dealer wins player he earns 100% bet. but if the cards are swapped, the player only get 50%.&amp;nbsp;&lt;/div&gt;&lt;div&gt;&amp;nbsp; So how can player win?&lt;/div&gt;" style="text;html=1;align=left;verticalAlign=middle;resizable=0;points=[];autosize=1;strokeColor=none;fillColor=none;" vertex="1" parent="1">
          <mxGeometry x="2" y="204" width="688" height="98" as="geometry" />
        </mxCell>
        <mxCell id="MzykiI3sRF4YuXdm_mYT-8" value="&lt;font style=&quot;font-size: 30px;&quot;&gt;THREE PICTURE&lt;br&gt;SURE LOSE&lt;/font&gt;" style="text;html=1;align=center;verticalAlign=middle;resizable=0;points=[];autosize=1;strokeColor=none;fillColor=none;" vertex="1" parent="1">
          <mxGeometry x="214" y="101" width="260" height="84" as="geometry" />
        </mxCell>
      </root>
    </mxGraphModel>
  </diagram>
</mxfile>
